<svg width="178" height="120" viewBox="0 0 178 120" fill="none" xmlns="http://www.w3.org/2000/svg">
<path d="M178 60.0004C178 93.1378 138.15 120 88.996 120C39.8444 120 0 93.1378 0 60.0004C0 26.8622 39.8444 0 88.996 0C138.15 0 178 26.8622 178 60.0004Z" fill="white"/>
<path d="M21.4179 79.5345C21.7017 78.9684 21.8138 78.4165 21.7578 77.8783C21.7017 77.3373 21.6738 76.8105 21.6738 76.3003C21.6738 76.0197 21.6343 75.7535 21.5417 75.4952C21.4633 75.2376 21.4181 74.9685 21.4181 74.6858C21.362 74.5142 21.3312 74.2287 21.3312 73.8361C21.2723 73.5506 21.2502 73.1494 21.2502 72.6449C21.1912 72.5301 21.1739 72.3866 21.2078 72.2158C21.2331 72.0479 21.2502 71.9051 21.2502 71.7896C21.2502 71.6805 21.2598 71.5485 21.2889 71.4085C21.3197 71.2687 21.3312 71.1394 21.3312 71.0246C21.3312 70.8007 21.3457 70.5876 21.3757 70.3882C21.4044 70.1894 21.5331 70.0071 21.758 69.8306C21.5891 69.8306 21.4433 69.8114 21.3312 69.7494V68.9837C21.3312 68.6981 21.3192 68.4426 21.2889 68.2159C21.261 67.989 21.2501 67.7365 21.2501 67.451C21.2501 67.1646 21.2597 66.8984 21.2889 66.6437C21.3196 66.3853 21.3312 66.1191 21.3312 65.8335V65.0679C21.3312 64.841 21.3004 64.5827 21.2501 64.3C21.1912 63.9606 21.1741 63.6104 21.2078 63.2401C21.233 62.8677 21.2222 62.4888 21.1633 62.0884C21.1043 61.6902 21.1043 61.2976 21.1633 60.8972C21.2222 60.5019 21.2501 60.1064 21.2501 59.706C21.2501 59.5933 21.3004 59.4197 21.4183 59.1987V58.8564C21.3004 58.2314 21.261 57.6372 21.2891 57.071C21.3199 56.4991 21.3625 55.9078 21.4183 55.2799C21.4772 55.1672 21.4888 55.0245 21.4635 54.8537C21.4327 54.6828 21.4183 54.548 21.4183 54.4332C21.4183 54.2064 21.4772 53.8642 21.5893 53.4099C21.5893 53.0146 21.6146 52.7289 21.674 52.5581V50.6852C21.674 50.5704 21.6596 50.4334 21.6345 50.2597C21.6009 50.0913 21.5893 49.9203 21.5893 49.7495C21.6483 49.5808 21.674 49.4101 21.674 49.2393C21.674 49.0677 21.7019 48.897 21.758 48.7291C21.8729 48.3308 21.898 48.0223 21.8448 47.7898C21.7859 47.6247 21.7714 47.4676 21.8025 47.3219C21.8306 47.1813 21.8729 47.0248 21.929 46.8562C22.044 46.5734 22.1029 46.318 22.1029 46.0884V45.3235C22.2129 44.7545 22.2718 44.3562 22.2718 44.1344C22.2129 43.5094 22.2129 42.8988 22.2718 42.2988C22.325 41.7076 22.4118 41.0933 22.524 40.4712C22.524 40.1906 22.5408 39.9387 22.5663 39.7055C22.5971 39.4844 22.6137 39.252 22.6137 39.0274V38.2567C22.6137 38.0378 22.6668 37.8054 22.7818 37.5786C22.9507 37.2363 22.9507 36.866 22.7818 36.4742C22.5576 36.1879 22.5576 35.9331 22.7818 35.7085C22.8357 35.5348 22.8665 35.2801 22.8665 34.9378C22.9226 34.772 22.9505 34.5453 22.9505 34.2626C23.0094 34.2037 23.0402 34.122 23.0402 34.0071C22.9223 33.2056 23.0655 32.5892 23.4641 32.132C23.6883 31.6778 23.6323 31.2265 23.2923 30.7665C23.5202 30.5426 23.7363 30.3352 23.9325 30.1336C24.1314 29.9342 24.342 29.749 24.5697 29.5811C24.9117 29.3571 25.1926 29.2416 25.4225 29.2416C25.5353 29.2416 25.6077 29.2248 25.6359 29.2001C25.6667 29.1662 25.7343 29.152 25.8493 29.152C26.3601 28.9869 26.7868 28.9562 27.1259 29.0681C27.5807 29.1808 27.9485 29.2418 28.2345 29.2418C28.5743 29.2418 28.8861 29.2957 29.172 29.4076C29.4558 29.5254 29.7389 29.6064 30.0226 29.6653C30.1376 29.6653 30.2497 29.7212 30.3646 29.8339L30.9624 30.4281C31.0745 30.7166 31.2569 30.924 31.5156 31.0725C31.7706 31.2102 31.9531 31.3947 32.068 31.6222C32.1809 31.849 32.2398 32.0204 32.2398 32.1324C32.2959 32.1884 32.3237 32.2306 32.3237 32.2636C32.3237 32.2876 32.3519 32.334 32.4077 32.3868C32.4666 32.5017 32.4945 32.6982 32.4945 32.9867C32.4945 33.1551 32.5506 33.3513 32.6656 33.5809C32.7784 33.9174 32.8934 34.2626 33.0054 34.5984C33.1175 34.9379 33.2325 35.2801 33.3481 35.6217C33.4602 35.7954 33.5191 35.9583 33.5191 36.1319C33.5191 36.3056 33.5441 36.4742 33.6031 36.645L33.861 37.9172C33.9149 37.9172 33.9428 37.9512 33.9428 38.0071C33.8271 38.4025 33.861 38.7728 34.0267 39.1115C34.1949 39.4509 34.3407 39.7932 34.4506 40.1319C34.5095 40.2468 34.5403 40.3703 34.5403 40.5158C34.5403 40.6595 34.5656 40.7849 34.6243 40.9005C34.6243 41.0655 34.6522 41.2112 34.7082 41.3202C34.8822 41.6625 34.9662 42.0608 34.9662 42.515C34.9073 42.7447 34.9662 42.9406 35.1351 43.1121C35.2498 43.2269 35.334 43.3389 35.393 43.4536C35.5051 44.0787 35.6904 44.642 35.9462 45.155C36.1983 45.6653 36.4146 46.2314 36.5856 46.8564C36.5856 47.0249 36.6108 47.165 36.6703 47.2827C36.6703 47.4485 36.7234 47.653 36.8411 47.8768C36.8411 47.9357 36.8531 47.978 36.8798 48.0061C36.9106 48.0342 36.925 48.0787 36.925 48.1325C36.81 48.3062 36.7985 48.4633 36.8798 48.6004C36.9676 48.7431 37.0371 48.8974 37.0961 49.0682C37.1521 49.3546 37.2089 49.6602 37.2678 50.0076C37.3239 50.3499 37.3799 50.6857 37.436 51.028C37.492 51.1428 37.5202 51.3416 37.5202 51.625C37.6349 51.9615 37.7335 52.2866 37.8233 52.5973C37.9047 52.9174 38.0028 53.2367 38.1179 53.5761C38.23 53.8087 38.3005 54.016 38.3342 54.2148C38.3594 54.4193 38.4268 54.6295 38.5418 54.8541C38.6005 54.9719 38.6318 55.042 38.6318 55.0701C38.6318 55.1009 38.6597 55.1677 38.7131 55.2804L38.9688 56.0482C39.0278 56.1013 39.0557 56.1494 39.0557 56.1775C39.0557 56.2056 39.0838 56.2469 39.1425 56.3003C39.3107 56.2471 39.3947 56.0734 39.3947 55.7958C39.5075 55.2267 39.6081 54.6692 39.6928 54.1339C39.7797 53.5957 39.8776 53.041 39.9931 52.4719C39.9931 52.4152 40.0521 52.2165 40.1639 51.8799V51.7062C40.2171 51.4794 40.2479 51.2663 40.2479 51.0675V50.5121C40.2479 50.2294 40.304 49.9208 40.4187 49.5814C40.4719 49.2958 40.5315 49.0403 40.5873 48.8107C40.6434 48.586 40.7023 48.3313 40.7581 48.0457C40.8702 47.4796 40.9289 47.0533 40.9289 46.7728C40.985 46.6579 41.0129 46.574 41.0129 46.5151C41.0129 46.4591 41.0386 46.4032 41.0947 46.3436C41.1565 46.2316 41.1847 46.1478 41.1847 46.0888C41.1847 46.0357 41.2126 45.949 41.2686 45.8341L41.4394 45.4976L41.5234 45.4077C41.4673 45.183 41.4952 44.998 41.6081 44.8551C41.723 44.7153 41.807 44.5581 41.866 44.3873V43.8377C41.866 43.6389 41.8939 43.4537 41.9473 43.2801V43.0246C42.1181 42.515 42.2081 41.9769 42.2081 41.41C42.0931 41.354 42.1181 41.2394 42.2927 41.0655C42.4609 40.9005 42.5478 40.7261 42.5478 40.5582C42.5478 40.3902 42.5731 40.1908 42.6318 39.9612C42.6907 39.6777 42.7186 39.3807 42.7186 39.0671C42.7186 38.7556 42.7468 38.4614 42.8033 38.1787C42.8564 37.7747 42.9009 37.3965 42.932 37.0262C42.9572 36.656 43.0025 36.3058 43.0612 35.9585C43.0612 35.6219 43.1985 35.426 43.4822 35.3672C43.5972 35.2516 43.653 35.1675 43.653 35.1088C43.7119 34.8878 43.768 34.6747 43.8218 34.4702C43.8779 34.2706 43.8526 34.0353 43.7427 33.7498V33.4104C43.8526 33.1276 43.9366 32.8556 43.9927 32.6002C44.0488 32.3454 44.1075 32.0792 44.1635 31.79C44.2196 31.569 44.1635 31.3387 43.9927 31.1119C44.1075 30.7165 44.0488 30.428 43.8219 30.2623C43.9367 29.803 44.049 29.4385 44.1639 29.1522C44.1639 29.0962 44.1947 29.0575 44.2539 29.0267C44.307 29.0015 44.3631 28.9285 44.4199 28.8136C44.5346 28.4713 44.6893 28.1606 44.8911 27.8801C45.0872 27.5944 45.2166 27.255 45.2726 26.8596C45.3287 26.5152 45.4579 26.2461 45.6541 26.0495C45.8567 25.8479 46.0953 25.6627 46.3812 25.4948C46.4962 25.4948 46.6083 25.5229 46.721 25.5815C46.8331 25.5815 46.92 25.5911 46.976 25.6209C47.035 25.649 47.1189 25.6625 47.2318 25.6625C47.2907 25.9517 47.4589 26.1756 47.7426 26.3464C48.1406 26.5768 48.4524 26.6018 48.6823 26.4302C48.7384 26.4302 48.7778 26.4447 48.8089 26.4783C48.8368 26.4999 48.9073 26.5148 49.0222 26.5148C48.7385 26.9095 48.6264 27.3386 48.6824 27.7928C48.7974 28.0755 48.8792 28.2162 48.9353 28.2162C49.2773 28.3899 49.3333 28.6726 49.1061 29.068C48.879 29.3572 48.7526 29.6061 48.7217 29.8336C48.6965 30.0633 48.6823 30.318 48.6823 30.6014C48.7383 30.887 48.7662 31.1985 48.7662 31.5351C48.7662 31.8766 48.7073 32.188 48.5954 32.4708C48.3712 33.1015 48.3965 33.8335 48.6823 34.6824C48.7973 35.1423 48.7973 35.4789 48.6823 35.7085C48.6823 35.8234 48.6967 35.9188 48.7217 36.0056C48.7525 36.0895 48.7662 36.188 48.7662 36.3056C48.7662 36.4175 48.7758 36.5439 48.8086 36.6866C48.8367 36.8272 48.8533 36.9557 48.8533 37.0712C48.8533 37.2923 48.8793 37.4659 48.9351 37.5786C49.0501 37.9173 49.0501 38.1785 48.9351 38.3435C48.8791 38.4024 48.8533 38.5989 48.8533 38.9405C48.8533 39.1673 48.8365 39.3697 48.8086 39.5376C48.7778 39.7055 48.7662 39.9078 48.7662 40.1317C48.7662 40.3622 48.797 40.5271 48.8531 40.6448C48.963 41.0373 48.9349 41.3796 48.7662 41.6623C48.7073 41.7772 48.6657 41.9178 48.6375 42.0915C48.6067 42.2594 48.567 42.3993 48.511 42.5148C48.396 42.7445 48.396 43.0581 48.511 43.4535C48.6257 44.0196 48.6483 44.4459 48.5949 44.7265C48.4828 44.959 48.4828 45.1549 48.5949 45.3235C48.707 45.7799 48.7378 46.1473 48.6818 46.4307V46.5148C48.7968 46.8004 48.8196 47.0357 48.7657 47.2403C48.7068 47.4368 48.6818 47.6809 48.6818 47.9636C48.6818 48.0784 48.6649 48.146 48.6373 48.1739C48.6065 48.2017 48.5947 48.275 48.5947 48.387C48.4239 48.8441 48.4239 49.2395 48.5947 49.581V49.9205C48.5387 50.2599 48.4963 50.5878 48.4682 50.8957C48.4374 51.2071 48.3705 51.535 48.2548 51.8795C48.2548 52.3308 48.2266 52.6423 48.1708 52.8131C48.1148 52.9789 48.084 53.1553 48.084 53.3204C48.084 53.497 48.0558 53.6627 48 53.8306C47.9411 54.0043 47.9132 54.2569 47.9132 54.6013C47.8571 54.77 47.8292 54.9264 47.8292 55.0699C47.8292 55.2097 47.8011 55.3389 47.7424 55.4538V56.129C47.6834 56.2996 47.6606 56.5301 47.6606 56.8129C47.6046 57.2111 47.5456 57.5786 47.4867 57.9201C47.4335 58.2624 47.3493 58.632 47.2316 59.0245C47.2316 59.2549 47.2596 59.4199 47.3185 59.5404C47.3745 59.8182 47.4162 60.1317 47.4472 60.474C47.4732 60.8156 47.5145 61.1521 47.5706 61.4944C47.5706 61.6093 47.561 61.7492 47.5319 61.9178C47.5011 62.0884 47.4866 62.2285 47.4866 62.3433C47.4866 62.4589 47.4746 62.5565 47.4472 62.6462C47.4164 62.7279 47.4056 62.8228 47.4056 62.9404C47.4056 63.4506 47.3187 63.7929 47.1469 63.9608C47.0348 64.1912 47.0348 64.387 47.1469 64.5549C47.2037 64.9561 47.2037 65.3514 47.1469 65.749V66.1724C47.1469 66.5735 47.1188 66.8871 47.0601 67.1088C47.0041 67.2208 46.9761 67.3944 46.9761 67.6191C46.9761 67.9046 46.9906 68.1601 47.0214 68.384C47.0466 68.6086 47.0601 68.8691 47.0601 69.1497V69.4044C46.892 69.6936 46.892 69.9203 47.0601 70.0882L47.1469 70.2627C47.0348 70.5454 47.0464 70.8116 47.1895 71.0671C47.3295 71.3219 47.4589 71.563 47.571 71.7897C47.6838 72.076 47.7428 72.5023 47.7428 73.0713V73.6626C47.6838 73.9454 47.7428 74.2597 47.9136 74.5983C47.9696 74.6579 47.9862 74.7276 47.9581 74.8115C47.9273 74.8982 47.9136 74.9965 47.9136 75.1143C47.8015 75.3949 47.8015 75.6525 47.9136 75.8742C48.1967 76.3313 48.3403 76.8107 48.3403 77.3202C48.3403 77.6065 48.3964 77.9172 48.5111 78.2595C48.6261 78.6549 48.5951 78.9685 48.4243 79.1959C48.2557 79.5347 48.1714 79.8798 48.1714 80.2164C48.2275 80.502 48.2109 80.7265 48.1267 80.8945C48.0449 81.0682 47.9414 81.2698 47.8292 81.4915C47.8292 81.6064 47.7142 81.6652 47.4866 81.6652C47.3745 81.6652 47.3184 81.6345 47.3184 81.5785C46.9197 81.5785 46.7767 81.7743 46.8916 82.1755L46.8077 82.2594C46.7516 82.3182 46.6927 82.3432 46.6369 82.3432C46.5801 82.3432 46.5212 82.374 46.4651 82.4309C46.1792 82.4898 45.8703 82.5458 45.5305 82.6015C45.1856 82.6546 44.8767 82.6267 44.5936 82.5148C44.307 82.4588 44.0067 82.3999 43.6985 82.3432C43.3838 82.2872 43.0864 82.2034 42.8033 82.0885C42.7465 82.0325 42.6905 82.0047 42.6315 82.0047C42.2924 82.0047 41.9806 81.805 41.6947 81.4047C41.4668 81.1858 41.2679 81.0682 41.0941 81.0682H40.6741C40.1633 81.0682 39.8486 80.9533 39.7365 80.7266L39.6497 80.642C39.1949 80.4712 38.9679 80.1885 38.9679 79.7874L38.5411 79.364C38.4822 79.3138 38.4264 79.2686 38.3703 79.2376C38.3114 79.2069 38.2578 79.1401 38.2017 79.0274C37.8597 78.7977 37.6349 78.3995 37.5199 77.8362C37.402 77.4358 37.402 77.0992 37.5199 76.8107C37.6907 76.3565 37.6349 75.908 37.3491 75.4509C37.293 75.3361 37.2343 75.2125 37.1805 75.067C37.1244 74.9293 37.0655 74.7728 37.0097 74.5984C36.8949 74.3157 36.7654 74.0014 36.6282 73.6627C36.4882 73.3262 36.3588 73.0126 36.2438 72.7291C36.072 72.2692 35.904 71.8658 35.733 71.4899C35.5622 71.1231 35.4183 70.7163 35.3063 70.2628L34.5404 68.4709C34.3686 68.0791 34.2121 67.6945 34.0713 67.325C33.9255 66.9547 33.8019 66.5736 33.6869 66.1725C33.5188 65.7212 33.3615 65.2533 33.2214 64.7711C33.0751 64.2918 32.9178 63.7931 32.7468 63.2829C32.519 62.7138 32.3229 62.1477 32.1512 61.5786C31.9831 61.0124 31.8121 60.4154 31.6411 59.7904C31.5844 59.6219 31.4415 59.3641 31.2173 59.0247C31.0426 58.686 30.8631 58.3437 30.6612 58.0043C30.4622 57.6656 30.2488 57.2982 30.0218 56.8999L29.94 56.8132C29.881 56.8132 29.825 56.7824 29.7689 56.7264V57.1555C29.71 57.2646 29.6821 57.3937 29.6821 57.5366C29.6821 57.6764 29.6261 57.8085 29.514 57.9205C29.2833 58.2628 29.2244 58.6862 29.3393 59.1992C29.3982 59.5408 29.3982 59.8802 29.3393 60.2189C29.2243 60.7829 29.1712 61.2085 29.1712 61.4948C29.0562 61.6628 29.0843 61.8335 29.2551 62.005C29.429 62.2289 29.4548 62.4305 29.3391 62.5992C29.2241 62.9407 29.1709 63.1991 29.1709 63.3641L28.9159 65.1524L28.6572 66.683C28.6572 66.7978 28.6041 66.9156 28.492 67.0224C28.3741 67.2549 28.3741 67.4515 28.492 67.6194C28.5451 67.7372 28.5451 67.877 28.492 68.0457C28.433 68.2165 28.3741 68.3621 28.3181 68.4712C28.2023 68.6428 28.1463 68.8974 28.1463 69.2368C28.2584 69.6939 28.2784 70.1618 28.1886 70.644C28.1076 71.1234 28.006 71.5913 27.8912 72.0484C27.8351 72.1603 27.8072 72.2694 27.8072 72.3871C27.8072 72.5026 27.7793 72.6146 27.7226 72.7293C27.6665 73.0128 27.622 73.2675 27.5967 73.4922C27.5631 73.719 27.4926 73.9736 27.3805 74.2599C27.2116 74.7171 27.0098 75.1203 26.7856 75.4956C26.5549 75.8659 26.3869 76.2728 26.2748 76.7263C26.0441 77.0155 25.8905 77.3126 25.8057 77.6233C25.7188 77.9347 25.5901 78.2318 25.4213 78.5153C25.1354 79.1962 24.5125 79.5916 23.5469 79.7093C23.2603 79.8213 23.0081 79.8213 22.7804 79.7093C22.5561 79.7093 22.3399 79.6901 22.141 79.6668C21.942 79.6387 21.7017 79.591 21.4179 79.5345Z" fill="#231F20"/>
<path d="M76.5463 53.8306C76.0894 53.3792 76.0024 52.9788 76.2912 52.6422C76.1204 52.4716 76.0613 52.216 76.1204 51.8766C76.1765 51.6469 76.2018 51.4396 76.2018 51.2408C76.2018 51.0411 76.2326 50.831 76.2917 50.5985V49.8365C76.2917 49.5502 76.4291 49.3542 76.7185 49.2394C76.7185 48.9531 76.6143 48.6984 76.4182 48.4738C76.2183 48.247 76.2608 47.9944 76.5469 47.7088C76.2609 47.4196 76.1208 47.1398 76.1208 46.8564C76.1208 46.5736 76.0619 46.2873 75.9491 46.0074C75.893 45.8897 75.9183 45.724 76.0337 45.4972C76.0337 45.3235 76.0506 45.1664 76.0754 45.0236C76.1035 44.883 76.0898 44.7545 76.0337 44.6419C76.0337 44.415 76.1206 44.2163 76.2917 44.0448C76.5159 43.7649 76.5159 43.4535 76.2917 43.112C76.0617 42.8285 76.0617 42.5149 76.2917 42.1755C76.5159 41.9458 76.5726 41.6933 76.4598 41.4099C76.3451 41.2979 76.3451 41.183 76.4598 41.0654V40.177C76.4598 39.6359 76.4695 39.0554 76.5024 38.4304C76.5306 37.8054 76.5614 37.2249 76.5893 36.6867C76.6145 36.1485 76.6316 35.8485 76.6316 35.7954C76.7437 35.395 76.8558 35.0133 76.9707 34.6466C77.0835 34.2706 77.1985 33.8895 77.3105 33.4941C77.3666 33.2673 77.3973 33.0543 77.3973 32.8555C77.3973 32.6558 77.4253 32.4206 77.4813 32.1322C77.5934 31.8487 77.6781 31.5796 77.737 31.3278C77.7931 31.0723 77.9641 30.8254 78.2478 30.6016C78.3628 30.6016 78.4218 30.4867 78.4218 30.2621C78.3068 29.9765 78.3629 29.7211 78.59 29.4943C78.8737 29.2109 79.0727 28.9281 79.1877 28.6425C79.2998 28.3591 79.4126 28.0756 79.5275 27.7929C79.8135 27.3415 80.0663 27.0222 80.2962 26.8593C80.4083 26.7416 80.5212 26.6433 80.6332 26.5565C80.7453 26.4784 80.8632 26.3741 80.9752 26.2623C81.0909 26.1475 81.2869 26.1196 81.5736 26.1756C82.0248 26.2875 82.3114 26.4447 82.4235 26.6435C82.5385 26.8429 82.5946 27.1709 82.5946 27.6222C82.5385 27.7342 82.525 27.8209 82.5498 27.8798C82.5806 27.9358 82.5946 28.0197 82.5946 28.1346C82.8224 28.0197 83.0077 27.9359 83.1477 27.8798C83.2877 27.821 83.4172 27.7621 83.5321 27.7061C83.6442 27.653 83.785 27.6107 83.9589 27.5797C84.1297 27.5516 84.2678 27.5093 84.3827 27.4533C84.6127 27.3973 84.8397 27.4226 85.0674 27.5372C85.4065 27.8207 85.8304 27.8795 86.3469 27.7056C86.6839 27.6525 86.8858 27.7616 86.9389 28.0472L87.1976 29.3231C87.2507 29.3791 87.2789 29.5247 87.2789 29.7486C87.1668 29.6955 87.0684 29.6647 86.9843 29.6647C86.8975 29.6647 86.7681 29.6366 86.6 29.5809L86.9391 30.0854C87.22 30.4277 87.2789 30.8001 87.113 31.1983C87.0519 31.3074 87.0262 31.4818 87.0262 31.7056C86.9672 31.9891 86.9256 32.2439 86.8975 32.4706C86.8693 32.6982 86.7988 32.9277 86.6841 33.1552C86.5662 33.6087 86.5433 33.951 86.6001 34.1749C86.7683 34.6262 86.7683 35.0554 86.6001 35.4508C86.5433 35.5627 86.4988 35.8964 86.4736 36.4317C86.4397 36.9699 86.4283 37.5784 86.4283 38.2594C86.4283 38.9404 86.438 39.5654 86.4736 40.1316C86.4988 40.7007 86.513 41.015 86.513 41.0652C86.6251 41.5223 86.5433 41.9988 86.2602 42.5147C86.0862 42.8003 86.0044 43.1117 86.0044 43.4533C86.0044 43.7367 85.8896 44.1573 85.6624 44.7263C85.4353 45.2415 85.4353 45.6929 85.6624 46.0854C85.7745 46.262 85.8024 46.3767 85.7492 46.4305C85.6342 46.8281 85.6342 47.1812 85.7492 47.4955C85.8613 47.8091 85.9742 48.1011 86.0862 48.3867C86.2601 48.6193 86.2882 48.8969 86.173 49.2392C86.1141 49.5219 86.058 49.7774 86.0042 50.007C85.9452 50.2288 85.9741 50.4892 86.0859 50.772V51.0274C85.9738 51.3101 85.861 51.5484 85.749 51.745C85.634 51.9495 85.5501 52.1906 85.4939 52.4712C85.435 52.6418 85.4061 52.9247 85.4061 53.3201C85.4629 53.5527 85.4939 53.7521 85.4939 53.92C85.4939 54.0906 85.435 54.2874 85.3193 54.5142V54.6829C85.3193 54.7977 85.3474 54.8535 85.4061 54.8535C85.5218 55.0243 85.55 55.2259 85.4939 55.4534L85.2353 56.7256V56.9782C85.2353 57.3227 85.2497 57.6649 85.2805 58.0015C85.3058 58.3431 85.2901 58.6545 85.2353 58.9373C85.2353 59.2265 85.2233 59.5235 85.1937 59.8342C85.1655 60.1428 85.1203 60.4427 85.0671 60.7283V61.0706C85.0111 61.3534 84.983 61.6088 84.983 61.8327C84.983 62.0603 84.8651 62.2841 84.6403 62.5145C84.5813 62.5704 84.5669 62.6572 84.5977 62.7663C84.6263 62.884 84.6121 62.9938 84.553 63.1086C84.4409 63.565 84.3569 64.0055 84.2972 64.4289C84.2382 64.8516 84.1572 65.2951 84.0421 65.7486C84.0421 65.8642 83.9996 65.9451 83.9156 66.0041C83.8317 66.0629 83.7561 66.1189 83.6993 66.172C83.5872 66.2898 83.5033 66.3457 83.4472 66.3457C83.3911 66.3457 83.3322 66.3743 83.2761 66.4274C82.9895 66.6011 82.9363 66.769 83.1044 66.9434C83.2762 67.1644 83.3012 67.4507 83.1912 67.7894C83.0762 68.3025 82.9053 68.7847 82.6804 69.2361C82.4504 69.6932 82.2544 70.1417 82.0827 70.5981C81.9677 70.8872 81.8392 71.1922 81.6983 71.5345C81.5583 71.8768 81.4289 72.1847 81.3168 72.4738C81.2018 72.8125 81.0589 73.1491 80.8872 73.4914C80.7191 73.8358 80.5481 74.1695 80.3793 74.5139L80.1214 75.2739C80.0093 75.3945 79.9532 75.4784 79.9532 75.5372C79.8964 75.5961 79.8125 75.7359 79.6945 75.9577C79.5824 76.0754 79.5093 76.2046 79.4841 76.3445C79.4533 76.4872 79.3864 76.6165 79.2707 76.7255C79.2707 76.7815 79.2586 76.8101 79.2291 76.8101C79.1983 76.8101 79.1867 76.8402 79.1867 76.8969C79.1867 77.1796 79.0999 77.3956 78.9317 77.5355C78.7578 77.6814 78.589 77.8046 78.4209 77.9166C78.247 78.0321 78.0502 78.3148 77.8231 78.769C77.5924 79.1084 77.3375 79.2792 77.0537 79.2792C76.8266 79.2792 76.6866 79.3631 76.6305 79.534C76.5148 79.8203 76.3302 80.0026 76.0745 80.0894C75.8166 80.1706 75.5781 80.2744 75.3503 80.3836C75.2382 80.4425 75.1067 80.4848 74.9688 80.5177C74.8259 80.5463 74.6994 80.641 74.5816 80.8098C74.4134 80.9804 74.2446 81.0085 74.0736 80.8965C73.8437 80.8376 73.6749 80.8657 73.56 80.9806C73.3918 81.269 73.108 81.3509 72.71 81.2411C72.4822 81.1851 72.1432 81.2692 71.6884 81.4908C71.4606 81.6056 71.2473 81.6787 71.0483 81.7068C70.8494 81.732 70.6359 81.8043 70.406 81.9199C70.2932 81.9199 70.1251 81.861 69.9003 81.7483C69.7853 82.0849 69.4965 82.2585 69.0446 82.2585C68.6459 82.2025 68.2787 82.1747 67.9389 82.1747H66.4877C66.0926 81.8891 65.6794 81.6924 65.2534 81.5776C64.8267 81.463 64.4423 81.2411 64.1054 80.8967C63.8754 80.6749 63.3955 80.4424 62.6541 80.2157C62.3739 80.1568 62.0873 80.0893 61.8042 80.0025C61.5175 79.9208 61.2877 79.7363 61.1253 79.4528C61.0663 79.394 60.8946 79.2791 60.6116 79.1084C60.2689 78.94 60.1008 78.7101 60.1008 78.4325C60.1008 78.144 60.014 77.9165 59.8422 77.7457C59.674 77.5806 59.4722 77.407 59.2473 77.2355L58.8213 76.81L58.6495 76.6415C58.3075 76.4678 58.1107 76.2605 58.0546 76.005C57.9986 75.7503 57.9986 75.4784 58.0546 75.1956C58.1107 74.8562 58.0239 74.5139 57.7996 74.1695C57.4009 73.609 57.1429 72.8965 57.033 72.0475C56.9741 72.0475 56.9491 72.0137 56.9491 71.9637V71.877C56.6602 71.7614 56.5338 71.6079 56.5647 71.4084C56.59 71.2096 56.5479 71.0244 56.4353 70.8536C56.607 70.6821 56.7471 70.5702 56.862 70.5171C56.747 70.3994 56.66 70.3434 56.607 70.3434C56.3763 70.3434 56.2054 70.1725 56.0962 69.8303V68.0449C56.0962 67.989 56.0817 67.9323 56.051 67.8734C56.0202 67.8232 56.0084 67.7643 56.0084 67.7054C56.1241 67.422 56.1378 67.2096 56.051 67.069C55.967 66.9262 55.8684 66.797 55.7507 66.6822C55.5265 66.4554 55.4417 66.172 55.5006 65.8333C55.6106 65.6086 55.6106 65.3927 55.5006 65.1939C55.3828 64.998 55.2707 64.782 55.1587 64.5545C54.9847 64.3277 54.9597 64.0752 55.0747 63.7925C55.0747 63.6747 55.1 63.5765 55.1587 63.4954C55.2147 63.4055 55.2708 63.3101 55.3295 63.1983C55.0995 62.8 54.9846 62.4018 54.9846 62.0042V60.729C54.9285 60.4434 54.9285 60.1908 54.9846 59.9641C55.0435 59.7343 54.9593 59.5069 54.7317 59.283C54.6757 59.227 54.6449 59.0836 54.6449 58.8568V56.9789C54.6449 56.7542 54.6328 56.5304 54.6004 56.2979C54.5744 56.0732 54.5609 55.8236 54.5609 55.538C54.5609 55.3133 54.5891 55.1677 54.6449 55.1088C54.872 54.7701 54.872 54.4336 54.6449 54.0913C54.872 53.8086 54.9006 53.4943 54.7317 53.1556C54.6757 53.041 54.6449 52.8693 54.6449 52.6425C54.6449 52.3591 54.6545 52.1208 54.6901 51.9192C54.7182 51.7234 54.7317 51.5102 54.7317 51.2855V50.7725C54.7317 50.5988 54.8185 50.4617 54.9846 50.3498V50.0075C54.9846 49.6093 54.9593 49.3237 54.9006 49.1529C54.9006 48.8106 54.9596 48.4855 55.0746 48.1741C55.1867 47.8662 55.1867 47.5634 55.0746 47.2828C55.0746 47.1091 55.0998 46.9973 55.1585 46.9413C55.1585 46.7726 55.1864 46.5875 55.2425 46.3887C55.2956 46.19 55.2706 46.0077 55.1585 45.834V45.5786C55.3827 45.298 55.456 45.0433 55.3719 44.8136C55.2877 44.589 55.2706 44.3343 55.3293 44.0451C55.3293 43.8212 55.3546 43.6224 55.4106 43.4538C55.4696 43.2801 55.5263 43.0842 55.5853 42.8568C55.6974 42.6299 55.6974 42.4277 55.5853 42.2597V41.9993C55.6413 41.7187 55.6974 41.4359 55.7505 41.1525C55.8095 40.8719 55.8684 40.5892 55.9245 40.3036C55.9245 40.1909 55.8937 40.0876 55.8376 40.0058C55.7816 39.9159 55.7255 39.8213 55.6724 39.7058L56.0086 39.37V39.2801C55.8378 39.0555 55.8096 38.739 55.9246 38.3437C56.0396 38.1169 56.1072 37.8923 56.138 37.6655C56.1659 37.438 56.2054 37.1834 56.2646 36.897H56.7753C56.7753 36.7851 56.7474 36.7012 56.6914 36.6452C56.5196 36.3567 56.4356 36.1881 56.4356 36.1321C56.4356 36.0761 56.5196 35.9334 56.6914 35.7087C56.6914 35.591 56.7034 35.5234 56.7359 35.4927C56.764 35.4674 56.7753 35.4259 56.7753 35.3672V34.5176C56.7753 34.232 56.8343 33.9514 56.9493 33.6659C57.0585 33.4943 57.1174 33.3236 57.1174 33.1557C57.1174 32.9872 57.2302 32.8414 57.4601 32.7294C57.1713 32.5019 57.0894 32.1883 57.2022 31.7901C57.2022 31.737 57.2142 31.6947 57.2496 31.6668C57.2748 31.6387 57.2861 31.5914 57.2861 31.5354C57.1173 31.1988 57.2301 30.9441 57.6281 30.7669C57.5131 30.5429 57.46 30.3973 57.46 30.3471C57.5721 30.0636 57.6539 29.7916 57.715 29.5369C57.7689 29.2815 57.8557 29.0152 57.9708 28.7268C57.9708 28.6729 57.9804 28.6141 58.0131 28.561C58.0413 28.505 58.0548 28.4182 58.0548 28.3005C58.1669 28.0199 58.2373 27.7343 58.2681 27.4537C58.2934 27.171 58.4534 26.9098 58.7365 26.6859V26.4304C59.0203 26.7139 59.3314 26.7419 59.6741 26.515C59.899 26.4023 60.1289 26.4023 60.353 26.515C60.6957 26.6859 61.0212 26.8595 61.338 27.0224C61.6469 27.199 61.9753 27.3639 62.3122 27.5376L62.6542 27.7063C62.8849 27.8211 63.0809 27.9782 63.2526 28.177C63.4234 28.3757 63.5077 28.614 63.5077 28.8975C63.5637 29.0152 63.5916 29.211 63.5916 29.4945V32.3003C63.5916 32.7574 63.582 33.2396 63.55 33.7498C63.5219 34.2629 63.5074 34.7422 63.5074 35.1928C63.5074 35.3084 63.5219 35.3952 63.55 35.4512C63.5808 35.5072 63.5916 35.591 63.5916 35.7088C63.5916 35.8237 63.6061 35.9054 63.6368 35.9614C63.6648 36.0203 63.6785 36.1099 63.6785 36.2161C63.5635 36.5024 63.5077 36.7715 63.5077 37.0263C63.5077 37.2817 63.4795 37.5508 63.4237 37.8336C63.4237 38.117 63.4333 38.3632 63.4653 38.5598C63.4935 38.7556 63.5079 38.9968 63.5079 39.2802C63.5079 39.5658 63.5361 39.8213 63.5919 40.048C63.6479 40.2727 63.704 40.5023 63.7627 40.7262C63.8194 41.2392 63.8755 41.7494 63.9344 42.2596C63.9876 42.7727 63.9652 43.255 63.8505 43.7092C63.7915 43.8212 63.7627 43.9639 63.7627 44.1347C63.9344 44.5301 63.976 44.9111 63.8921 45.2814C63.8052 45.6546 63.7915 46.0356 63.8505 46.431V50.0075C63.8505 50.2902 63.7915 50.5707 63.6787 50.8542C63.5637 51.1427 63.5079 51.4089 63.5079 51.6665V52.4716C63.564 52.7601 63.6063 53.0263 63.6373 53.2811C63.6652 53.5365 63.6205 53.8085 63.5079 54.0912C63.4519 54.1472 63.424 54.2068 63.424 54.257C63.5921 54.882 63.564 55.4539 63.3371 55.9642C63.5079 56.2469 63.5361 56.5303 63.424 56.8131C63.309 57.0994 63.309 57.3821 63.424 57.6656V58.0021C63.1933 58.3997 63.1653 58.7699 63.3371 59.1144C63.5079 59.3892 63.5361 59.6497 63.424 59.8772C63.309 60.1599 63.2811 60.3874 63.3371 60.561C63.3961 60.729 63.4521 60.9284 63.5079 61.1523C63.62 61.4917 63.6787 61.7493 63.6787 61.918C63.7319 62.2036 63.7627 62.4591 63.7627 62.6858C63.7627 62.9155 63.7913 63.168 63.8505 63.4507C63.9065 63.6194 63.9655 63.793 64.0186 63.9609C64.0747 64.1347 64.1307 64.3004 64.1894 64.4712C64.2426 64.7016 64.2763 64.8974 64.2763 65.0682C64.2763 65.2369 64.3302 65.4356 64.4423 65.6652C64.5572 66.0047 64.6443 66.3577 64.7002 66.7308C64.7562 67.1004 64.8402 67.4513 64.9531 67.79C65.0709 68.0204 65.1383 68.2442 65.1686 68.471C65.1946 68.6985 65.2672 68.9252 65.3791 69.1498L65.8957 70.938C65.9488 71.0558 66.0056 71.1928 66.0643 71.3643C66.1203 71.5351 66.2072 71.7059 66.3193 71.8774V72.4744C66.5443 72.5304 66.7461 72.7012 66.9171 72.9817C67.142 73.5508 67.6549 74.0301 68.4495 74.4248C68.6766 74.5425 68.9014 74.6552 69.1313 74.7728C69.3591 74.8819 69.6141 74.9968 69.9 75.1144C70.293 75.2744 70.6637 75.1963 71.0057 74.8568C71.1214 74.7448 71.2895 74.5145 71.5165 74.1701C71.6293 74.0581 71.7443 73.9317 71.8592 73.789C71.9713 73.6485 72.0863 73.492 72.2019 73.3262C72.3111 73.2113 72.3701 73.0686 72.3701 72.897C72.2553 72.6731 72.2553 72.4156 72.3701 72.1264C72.4822 71.8487 72.5834 71.5466 72.6675 71.2351C72.7543 70.9266 72.8527 70.6266 72.962 70.3439C73.1898 69.9514 73.3773 69.5366 73.5181 69.1132C73.661 68.6841 73.8745 68.2751 74.1546 67.8739C74.2725 67.706 74.3401 67.5209 74.3709 67.325C74.3988 67.1253 74.4693 66.9153 74.5814 66.6828C74.6403 66.5737 74.6682 66.4841 74.6682 66.428C74.6682 66.3749 74.699 66.2903 74.7551 66.1726C74.7551 66.0635 74.7647 65.9739 74.7945 65.9207C74.8253 65.8647 74.839 65.778 74.839 65.6652C74.783 65.3796 74.839 65.1522 75.0079 64.9785C75.1227 64.8134 75.1787 64.5551 75.1787 64.2164C75.1227 64.0427 75.0948 63.765 75.0948 63.3639C75.2097 63.0783 75.2521 62.787 75.2242 62.4698C75.196 62.1641 75.2658 61.8613 75.4347 61.5786C75.4878 61.5255 75.5215 61.4637 75.5215 61.4077C75.4058 61.0123 75.3642 60.6392 75.3921 60.3005C75.4202 59.964 75.4876 59.6217 75.6055 59.283C75.6615 59.1145 75.6923 58.8287 75.6923 58.4304V57.5787C75.6923 57.2981 75.7484 57.0096 75.8605 56.7262V54.9437C75.8605 54.7111 75.9057 54.5038 75.9899 54.3044C76.0738 54.1056 76.2604 53.9482 76.5463 53.8306Z" fill="#231F20"/>
<path d="M126.306 82.3431L125.793 80.3031C125.734 80.1882 125.692 80.0447 125.669 79.8797C125.636 79.7091 125.594 79.5604 125.535 79.4534C125.485 79.3357 125.454 79.2547 125.454 79.1958C125.454 79.1398 125.426 79.0531 125.367 78.9403C125.31 78.3713 125.271 77.836 125.24 77.32C125.212 76.8105 125.167 76.2724 125.114 75.7055C125.055 75.3668 125.038 75.0216 125.071 74.6858C125.095 74.3435 125.081 74.0012 125.027 73.6625C125.027 73.2671 124.998 72.9836 124.943 72.8129C124.887 72.1261 124.887 71.4645 124.943 70.8115C124.999 70.1614 125.08 69.4911 125.198 68.813C125.251 68.132 125.31 67.4647 125.367 66.8145C125.426 66.1615 125.484 65.4884 125.535 64.8132C125.594 64.4709 125.636 64.1343 125.669 63.7927C125.693 63.4505 125.708 63.0781 125.708 62.6855V62.4301C125.655 62.0885 125.624 61.7355 125.624 61.3652C125.624 60.9949 125.593 60.639 125.534 60.3003C125.484 60.1316 125.467 59.9472 125.498 59.7506C125.526 59.5461 125.534 59.333 125.534 59.1141V58.2623C125.534 58.1446 125.525 58.0744 125.498 58.0463C125.467 58.0182 125.453 57.9452 125.453 57.8361C125.397 57.379 125.366 56.97 125.366 56.5997V55.3669C125.366 55.1982 125.349 55.0418 125.321 54.8983C125.293 54.7584 125.279 54.6012 125.279 54.4333C125.222 53.9202 125.181 53.3964 125.153 52.8525C125.122 52.32 125.113 51.7926 125.113 51.2852C125.055 50.8281 125.015 50.3495 124.984 49.8364C124.956 49.3234 124.915 48.844 124.859 48.3869C124.799 47.7088 124.681 47.0357 124.516 46.3884C124.345 45.7354 124.173 45.0652 124.005 44.3842C123.778 43.8238 123.634 43.2267 123.581 42.6017C123.463 42.3154 123.393 42.0327 123.368 41.7492C123.337 41.4665 123.292 41.1801 123.236 40.9003L122.986 40.3901H122.726C122.554 40.558 122.389 40.7152 122.215 40.8522C122.044 40.9981 121.9 41.1522 121.791 41.323C121.558 41.7184 121.351 42.0915 121.148 42.4273C120.949 42.7725 120.736 43.1399 120.511 43.5374L120.258 43.79C119.917 44.0785 119.627 44.4739 119.4 44.987C119.116 45.5 118.664 45.7491 118.044 45.7491C117.924 45.6931 117.854 45.6823 117.828 45.7075C117.797 45.7354 117.753 45.7243 117.696 45.665C117.413 45.5501 117.146 45.5222 116.888 45.5782C116.632 45.6342 116.363 45.6929 116.077 45.7488H114.842C114.471 45.7488 114.093 45.7236 113.694 45.665H113.607C113.04 45.3793 112.485 45.1383 111.943 44.9388C111.41 44.7429 110.905 44.4738 110.456 44.1344C109.945 43.7899 109.463 43.4533 109.011 43.1118C108.553 42.7723 108.124 42.3741 107.731 41.9177C107.562 41.6902 107.388 41.4771 107.217 41.2812C107.049 41.0815 106.906 40.9002 106.791 40.7258C106.508 40.3311 106.252 39.9494 106.022 39.5798C105.794 39.2124 105.542 38.7976 105.258 38.3434C105.258 38.2874 105.202 38.2062 105.09 38.0908C104.691 38.0908 104.408 38.214 104.24 38.4726C104.066 38.7331 103.895 38.9405 103.724 39.1141C103.608 39.3947 103.524 39.6466 103.468 39.8769C103.418 40.1037 103.325 40.3619 103.213 40.6447L102.957 41.4097V41.8388C103.008 42.1223 103.008 42.3741 102.957 42.6016C102.904 42.8285 102.82 43.0839 102.702 43.3637C102.643 43.5963 102.615 43.79 102.615 43.9636C102.615 44.1344 102.587 44.3339 102.536 44.5577C102.536 44.8412 102.506 45.0429 102.446 45.1548C102.332 45.7239 102.306 46.1221 102.365 46.3432C102.365 46.6295 102.331 46.8002 102.272 46.8562C102.104 47.1397 102.076 47.4791 102.194 47.8766V48.6423C102.135 48.925 102.104 49.169 102.104 49.3649V50.0911C102.048 50.3158 102.022 50.5453 102.022 50.7721V51.5349C102.022 51.8205 102.037 52.0896 102.065 52.345C102.093 52.5969 102.075 52.8689 102.022 53.1552C102.022 53.4379 101.966 53.8082 101.849 54.2567C101.792 54.548 101.849 54.8257 102.022 55.1084C102.135 55.3948 102.194 55.6359 102.194 55.8347V56.479C102.135 56.9275 102.25 57.3509 102.536 57.752C102.474 58.0326 102.43 58.3434 102.408 58.6856C102.374 59.0243 102.331 59.3637 102.272 59.706C102.272 59.8798 102.216 60.0756 102.104 60.3002C102.048 60.4148 102.022 60.5607 102.022 60.7286C102.022 60.8971 101.994 61.0401 101.935 61.152C101.876 61.3204 101.848 61.4771 101.848 61.6206C101.848 61.7662 101.82 61.9148 101.764 62.0884C101.649 62.374 101.594 62.646 101.594 62.8986C101.594 63.1562 101.568 63.4224 101.512 63.7059C101.512 63.8796 101.495 64.0424 101.467 64.2161C101.439 64.3867 101.425 64.5548 101.425 64.7313C101.54 65.2365 101.568 65.7352 101.511 66.2174C101.452 66.7025 101.452 67.1984 101.511 67.7057C101.511 67.9892 101.467 68.2747 101.386 68.5553C101.299 68.8409 101.223 69.1244 101.17 69.4042C101.111 69.6934 101.068 69.9338 101.04 70.1333C101.009 70.3292 100.971 70.5452 100.914 70.772C100.799 71.336 100.687 71.7924 100.575 72.126C100.46 72.3586 100.372 72.5523 100.319 72.7288C100.263 72.8968 100.288 73.0934 100.401 73.3258C100.516 73.6624 100.459 73.9731 100.226 74.2566C100.173 74.3714 100.145 74.5142 100.145 74.6857L99.4628 75.3667C99.1819 75.4787 98.781 75.4198 98.2731 75.1958C97.5316 74.8005 96.8219 74.6856 96.1401 74.8564C96.0279 74.7445 95.9411 74.6685 95.8871 74.6404C95.8311 74.6152 95.775 74.5419 95.719 74.4244C95.489 74.1474 95.1493 73.9451 94.6916 73.8331C94.4645 73.78 94.2649 73.676 94.0968 73.5332C93.9257 73.3933 93.726 73.2669 93.499 73.1493V72.9835C93.6138 72.7567 93.6563 72.53 93.6256 72.2996C93.5974 72.0757 93.6159 71.8482 93.6703 71.6215V69.2807C93.6703 68.9112 93.6982 68.5014 93.755 68.045C93.755 67.6496 93.767 67.2657 93.7966 66.8983C93.8248 66.528 93.8671 66.1441 93.926 65.7488C93.9821 65.1797 94.0381 64.6308 94.0968 64.0868C94.1529 63.5515 94.1529 62.9939 94.0968 62.4299C94.0379 62.0883 94.0213 61.7661 94.0552 61.4518C94.0805 61.1411 94.0968 60.8153 94.0968 60.4738C94.0968 60.3589 94.08 60.2578 94.0552 60.1767C94.0213 60.0868 94.01 59.9857 94.01 59.8796L93.7549 55.5375C93.6982 54.8536 93.6876 54.1891 93.7124 53.5361C93.7432 52.886 93.811 52.2466 93.9257 51.6244L94.1836 48.3056C94.2368 47.6246 94.2763 46.9408 94.3102 46.2591C94.3384 45.5781 94.4028 44.8999 94.5207 44.2161C94.6357 43.6521 94.765 43.0838 94.9079 42.5147C95.0431 41.9457 95.1774 41.3795 95.2894 40.8154C95.4023 40.3619 95.4612 40.0168 95.4612 39.7929C95.6265 38.9404 95.8003 38.0908 95.9713 37.2361C96.1402 36.3865 96.37 35.5627 96.6509 34.772C96.7659 34.5451 96.8217 34.3744 96.8217 34.2624C96.9367 34.0349 97.0488 33.7494 97.1616 33.4099C97.2205 33.2951 97.2515 33.1968 97.2515 33.1129C97.2515 33.029 97.3047 32.9305 97.4197 32.8072C97.5318 32.589 97.6475 32.373 97.7595 32.1707C97.8743 31.9806 97.9837 31.7645 98.0986 31.5349C98.2143 31.3073 98.3293 31.1 98.4385 30.8955C98.5563 30.6997 98.6713 30.4865 98.7811 30.2619C98.8932 30.0853 99.0082 29.934 99.126 29.7912C99.2381 29.6513 99.3509 29.4941 99.4629 29.3233C99.5777 29.0958 99.6821 28.869 99.7603 28.6423C99.8472 28.4147 99.9456 28.1909 100.064 27.9577C100.173 27.6778 100.33 27.3973 100.529 27.1117C100.731 26.8282 100.998 26.6323 101.34 26.5146C101.452 26.5146 101.554 26.4839 101.638 26.4301C101.724 26.3741 101.82 26.3181 101.935 26.2621C101.935 25.9765 101.966 25.749 102.022 25.5811C102.135 25.5811 102.235 25.5667 102.319 25.5386C102.407 25.5105 102.505 25.4939 102.615 25.4939C102.903 25.4939 103.201 25.4795 103.51 25.4514C103.824 25.4235 104.121 25.4393 104.408 25.4939C104.691 25.6087 104.988 25.6482 105.306 25.6203C105.611 25.5922 105.909 25.6107 106.198 25.6618C106.419 25.6618 106.65 25.6957 106.877 25.7486C107.105 25.8046 107.301 25.8327 107.472 25.8327C107.703 26.119 107.915 26.363 108.112 26.556C108.314 26.7583 108.552 26.9708 108.842 27.1983C109.06 27.3102 109.265 27.4616 109.431 27.6661C109.602 27.8627 109.804 28.0472 110.032 28.2158L110.284 28.4705C110.68 28.7597 110.997 29.0848 111.224 29.4493C111.451 29.8217 111.701 30.1748 111.99 30.5142C112.277 30.8558 112.529 31.2096 112.757 31.5791C112.981 31.9494 113.24 32.2745 113.523 32.5579C113.694 32.7285 113.834 32.9303 113.949 33.1549C114.061 33.3818 114.176 33.6085 114.291 33.8331C114.46 34.0628 114.659 34.4021 114.887 34.8535C115.17 34.9712 115.451 34.8874 115.743 34.598C116.189 34.0878 116.632 33.5805 117.059 33.0674C117.483 32.5579 117.923 32.0477 118.381 31.5346C118.605 31.3071 118.849 31.1112 119.105 30.9433C119.36 30.7662 119.626 30.5702 119.916 30.3463C120.483 29.7773 121.137 29.323 121.872 28.9865C121.928 28.9276 121.989 28.8882 122.043 28.8546C122.099 28.8293 122.189 28.7599 122.295 28.6422C122.41 28.5855 122.487 28.5266 122.512 28.4706C122.54 28.4146 122.613 28.3308 122.725 28.2159C122.952 28.1039 123.152 28.0472 123.32 28.0472H124.515C124.914 28.0472 125.309 28.1039 125.708 28.2159C125.933 28.3307 126.151 28.3896 126.345 28.3896C126.544 28.3896 126.758 28.4148 126.985 28.4708C127.439 28.5856 127.891 28.7176 128.346 28.8547C128.801 29.001 129.256 29.2106 129.713 29.4941C129.825 29.8335 129.937 30.0854 130.052 30.2619C130.108 30.3746 130.151 30.4721 130.182 30.559C130.21 30.6409 130.28 30.7442 130.395 30.8561C130.678 31.1424 130.905 31.4646 131.077 31.8348C131.248 32.2044 131.447 32.5581 131.669 32.8997C131.843 33.1774 131.983 33.486 132.099 33.7938C132.211 34.1053 132.326 34.4024 132.438 34.6822C132.438 34.7418 132.452 34.7834 132.483 34.8115C132.511 34.8394 132.527 34.8874 132.527 34.9379C132.412 35.1087 132.381 35.2801 132.437 35.4509C132.494 35.6218 132.55 35.7954 132.609 35.9583V36.3056C132.668 36.5331 132.699 36.7454 132.699 36.9421C132.699 37.1408 132.727 37.326 132.781 37.4939V39.0274C132.893 39.3697 132.997 39.7055 133.078 40.0478C133.165 40.3901 133.263 40.7259 133.375 41.0653C133.375 41.1242 133.385 41.1802 133.418 41.2391C133.449 41.2979 133.462 41.3537 133.462 41.4097C133.462 41.9765 133.575 42.486 133.802 42.9403V44.3841C133.858 44.5578 133.903 44.7429 133.931 44.9388C133.959 45.1384 134.027 45.3564 134.144 45.5781C134.144 45.693 134.195 45.8616 134.316 46.0883C134.655 46.3768 134.765 46.8282 134.655 47.4482C134.655 47.8486 134.737 48.16 134.911 48.3868C135.026 48.5016 135.076 48.6422 135.076 48.8101C135.138 48.869 135.166 48.9529 135.166 49.0677C135.337 49.2393 135.433 49.4237 135.464 49.6232C135.494 49.8219 135.509 50.0322 135.509 50.2597C135.509 50.4894 135.521 50.7132 135.548 50.9406C135.576 51.1675 135.59 51.397 135.59 51.6245C135.59 52.017 135.569 52.3026 135.509 52.4713C135.509 52.5859 135.534 52.67 135.59 52.7289C135.702 53.0145 135.776 53.3116 135.804 53.6173C135.832 53.9344 135.874 54.2286 135.933 54.5142C135.933 54.7977 135.961 55.1084 136.014 55.4536C136.073 55.7951 136.045 56.1008 135.933 56.3893V56.4792C136.101 56.9276 136.177 57.3933 136.146 57.8784C136.118 58.3606 136.216 58.8285 136.444 59.2828C136.612 59.7341 136.668 60.1597 136.612 60.5608V60.7287C136.727 61.0122 136.727 61.4075 136.612 61.9149C136.612 62.2033 136.64 62.4301 136.702 62.5988C136.873 63.1678 136.898 63.6191 136.786 63.9607C136.842 64.2499 136.884 64.4881 136.912 64.684C136.943 64.8856 136.983 65.096 137.042 65.3234C137.092 65.5474 137.14 65.749 137.171 65.9205C137.199 66.0856 137.213 66.2872 137.213 66.5147C137.269 66.6826 137.283 66.8562 137.255 67.0219C137.227 67.1985 137.213 67.3944 137.213 67.619C137.154 67.7367 137.109 67.8737 137.084 68.0453C137.05 68.2161 137.013 68.3617 136.957 68.4707V68.897C136.898 69.0118 136.787 69.1496 136.613 69.3233C136.728 69.553 136.814 69.7495 136.873 69.9174C136.703 70.088 136.613 70.2906 136.613 70.5173C136.613 70.7413 136.641 70.9687 136.703 71.1954C136.815 71.4846 136.786 71.8205 136.613 72.213C136.557 72.3307 136.517 72.4456 136.492 72.5524C136.455 72.673 136.473 72.8129 136.531 72.9837C136.531 73.0935 136.517 73.1833 136.492 73.2363C136.455 73.2951 136.444 73.3819 136.444 73.4918C136.161 73.6095 135.962 73.7186 135.846 73.8333C135.737 73.9453 135.678 74.0909 135.678 74.2567C135.569 74.3155 135.42 74.4246 135.248 74.5983C135.248 74.6578 135.239 74.6994 135.207 74.7275C135.178 74.7556 135.167 74.8287 135.167 74.9378C135.167 75.1704 135.139 75.3109 135.077 75.3669C134.856 75.6525 134.699 75.9582 134.612 76.3004C134.525 76.642 134.426 76.9872 134.317 77.3202C134.196 77.6065 134.002 77.8361 133.719 78.0019C133.433 78.1138 133.178 78.2875 132.953 78.5149H132.267C132.04 78.5149 131.818 78.5961 131.591 78.7697C131.475 79.1091 131.357 79.3638 131.248 79.5346C131.13 79.476 131.063 79.4342 131.032 79.4061C131.004 79.3808 130.934 79.3357 130.819 79.2797C130.48 79.3357 130.252 79.5603 130.14 79.9607C130.025 80.1883 129.798 80.4709 129.461 80.8103C129.343 80.8663 129.27 80.9281 129.245 80.9809C129.214 81.0398 129.146 81.1237 129.034 81.2414C128.745 81.578 128.375 81.8894 127.926 82.175C127.64 82.2309 127.367 82.2588 127.114 82.2588C126.859 82.2588 126.587 82.2871 126.306 82.3431Z" fill="#231F20"/>
<path d="M156.211 69.4912C156.149 69.7216 156.113 69.9339 156.085 70.1334C156.054 70.3293 156.04 70.5704 156.04 70.8539V71.1086C156.093 71.3362 156.093 71.5657 156.04 71.7925V72.9837C155.928 73.3819 155.928 73.7465 156.04 74.0909V74.17C155.928 74.5704 155.838 74.9378 155.785 75.2743C155.728 75.6216 155.639 75.9919 155.529 76.3902C155.529 76.5021 155.501 76.5747 155.443 76.5975C155.387 76.6314 155.331 76.7009 155.274 76.8107C155.103 76.9844 155.019 77.0992 155.019 77.1494C155.019 77.4357 154.973 77.6818 154.892 77.8785C154.805 78.0743 154.738 78.3155 154.676 78.596C154.676 78.8257 154.533 79.0811 154.25 79.3638C154.084 79.4256 153.935 79.6215 153.826 79.9609C153.767 80.0197 153.795 80.1574 153.907 80.3843C153.624 80.7825 153.338 80.9813 153.057 80.9813C152.945 81.0373 152.83 81.0651 152.718 81.0651L152.375 81.2418C152.145 81.4635 151.98 81.4915 151.861 81.3234C151.749 81.3765 151.665 81.4633 151.612 81.5782C151.553 81.6931 151.466 81.7209 151.353 81.6649C151.233 81.6649 151.143 81.7075 151.053 81.7913C150.972 81.8752 150.868 81.9206 150.758 81.9206C150.192 81.9206 149.763 81.9485 149.476 82.0045C149.024 82.1222 148.741 82.1751 148.626 82.1751C148.51 82.1751 148.426 82.1847 148.376 82.2144C148.314 82.2452 148.23 82.2591 148.115 82.2591L146.841 81.749C146.555 81.4634 146.412 81.1548 146.412 80.8103C146.412 80.4709 146.33 80.1293 146.156 79.7871C146.044 79.3357 145.985 78.9963 145.985 78.7695C145.873 78.3153 145.785 77.8639 145.727 77.4075C145.674 76.9533 145.618 76.5019 145.559 76.0477C145.503 75.93 145.477 75.793 145.477 75.6215V75.1141C145.247 74.5422 145.132 73.9624 145.132 73.3654C145.132 72.7684 145.104 72.1598 145.048 71.5348C145.048 71.2513 145.031 70.9686 145.005 70.6823C144.977 70.3996 144.964 70.119 144.964 69.8305V66.3459C144.964 65.7209 144.992 65.0959 145.048 64.4709V61.8754C145.048 61.452 145.076 61.0121 145.132 60.5579V59.2827C145.132 58.8873 145.163 58.4582 145.222 58.0018C145.275 57.4378 145.32 56.8831 145.351 56.3449C145.379 55.8067 145.444 55.257 145.559 54.683C145.559 54.3464 145.618 53.8893 145.727 53.3203L145.985 51.7926C146.044 51.451 146.086 51.1087 146.114 50.7721C146.143 50.4334 146.188 50.1191 146.244 49.8364C146.244 49.6598 146.253 49.4912 146.286 49.3233C146.311 49.1525 146.331 49.0119 146.331 48.8971L146.584 46.8563C146.584 46.7443 146.556 46.6294 146.5 46.5176C146.441 46.4027 146.382 46.2872 146.331 46.1753C146.157 46.0073 146.076 45.8337 146.076 45.6622C146.129 45.6062 146.188 45.5646 146.244 45.5358C146.294 45.5079 146.353 45.469 146.412 45.4073C146.527 45.2974 146.611 45.2415 146.665 45.2415H146.755C146.98 44.9587 147.192 44.8547 147.389 44.9387C147.588 45.0232 147.801 45.065 148.029 45.065C148.315 45.121 148.742 45.2666 149.309 45.497C149.707 45.5501 150.164 45.6928 150.672 45.9204L150.841 46.0071C151.354 46.287 151.722 46.6293 151.952 47.0247C152.065 47.2515 152.168 47.4645 152.25 47.6604C152.334 47.8656 152.432 48.0781 152.547 48.3055C152.32 48.5854 152.236 48.7849 152.292 48.8968C152.348 49.0117 152.547 49.1294 152.889 49.2391C152.889 49.354 152.899 49.4824 152.932 49.623C152.957 49.7629 152.974 49.8921 152.974 50.0069C153.033 50.1189 153.058 50.2287 153.058 50.3493C153.058 50.4612 153.114 50.5703 153.229 50.6851C153.338 50.7999 153.338 50.9405 153.229 51.1084C153.229 51.3969 153.316 51.5347 153.484 51.5347C153.597 51.6467 153.653 51.7615 153.653 51.8763C153.768 52.1626 153.838 52.4288 153.866 52.6835C153.897 52.939 153.936 53.211 153.992 53.4937C154.054 53.6624 154.085 53.8303 154.085 54.0039C154.085 54.1776 154.136 54.3462 154.251 54.5141C154.424 54.8535 154.506 55.2769 154.506 55.7922C154.676 56.2995 154.761 56.8714 154.761 57.4964C154.82 57.6062 154.834 57.693 154.806 57.7519C154.775 57.8079 154.761 57.8667 154.761 57.9198C154.705 58.2621 154.761 58.6575 154.93 59.1139C154.93 59.2266 154.946 59.3105 154.974 59.3607C155.003 59.4196 155.019 59.5092 155.019 59.6212C155.076 59.7899 155.103 59.9635 155.103 60.1314C155.103 60.2999 155.132 60.4738 155.188 60.6417C155.3 61.0399 155.387 61.4073 155.443 61.7489C155.502 62.0883 155.53 62.4586 155.53 62.859C155.53 63.0219 155.583 63.2264 155.701 63.4503C155.87 63.7926 155.929 64.1033 155.87 64.3838C155.87 64.4427 155.887 64.4987 155.915 64.5544C155.943 64.6133 155.957 64.7008 155.957 64.8128C156.013 64.9807 156.069 65.1515 156.128 65.323C156.184 65.4881 156.15 65.6926 156.041 65.9201V66.0851C156.15 66.3177 156.212 66.5142 156.212 66.6821C156.212 66.8559 156.184 67.0553 156.128 67.2792C156.128 67.5068 156.15 67.6775 156.212 67.7894C156.212 68.0199 156.222 68.2156 156.255 68.3836C156.28 68.5551 156.24 68.7287 156.128 68.8995V69.1492C156.128 69.2639 156.14 69.3364 156.167 69.3653C156.198 69.3931 156.211 69.4383 156.211 69.4912ZM145.387 35.6218C145.275 35.0556 145.221 34.6545 145.221 34.4277C145.221 34.1471 145.162 33.9204 145.047 33.7525C144.935 33.578 144.823 33.4102 144.705 33.2394C144.598 33.0678 144.568 32.9279 144.626 32.8074C144.738 32.7572 144.879 32.7572 145.047 32.8074C145.221 32.9866 145.443 33.0176 145.726 32.8999C145.901 32.8999 145.985 32.841 145.985 32.7291C146.044 32.5585 146.142 32.4428 146.285 32.3868C146.425 32.3308 146.555 32.244 146.664 32.132C146.782 32.132 146.841 32.1039 146.841 32.0482C146.948 31.9893 147.037 31.9326 147.096 31.8766C147.147 31.8235 147.236 31.7899 147.349 31.7899C147.517 31.7899 147.772 31.8458 148.115 31.9614C148.115 32.0791 148.134 32.1601 148.16 32.2162C148.188 32.2722 148.199 32.3618 148.199 32.4709C148.314 32.3618 148.382 32.2635 148.412 32.1709C148.438 32.0871 148.51 31.9895 148.626 31.8767C148.856 31.9894 149.077 32.1043 149.308 32.2162C149.535 32.3308 149.737 32.4996 149.905 32.7293L150.758 33.1555C150.812 33.2057 150.84 33.3234 150.84 33.4942C150.783 33.8896 150.899 34.2319 151.182 34.5174C151.41 34.8009 151.594 35.1088 151.738 35.4511C151.878 35.7955 152.035 36.132 152.204 36.4743C152.262 36.5863 152.305 36.7291 152.333 36.897C152.358 37.0714 152.402 37.2113 152.462 37.3261C152.577 37.5508 152.662 37.6964 152.717 37.7466C152.945 38.0911 153.003 38.4893 152.888 38.9407C152.773 39.5069 152.633 39.908 152.461 40.1348C152.461 40.3032 152.42 40.4462 152.333 40.5581C152.249 40.6727 152.145 40.8157 152.035 40.9815C151.979 41.0935 151.951 41.3202 151.951 41.6625C151.895 41.6625 151.749 41.6094 151.522 41.4945C151.294 41.6625 151.126 41.8949 151.014 42.1755C150.955 42.3994 150.783 42.5149 150.503 42.5149C150.391 42.5149 150.298 42.4863 150.247 42.4272C150.014 42.3153 149.79 42.2708 149.565 42.2987C149.338 42.3294 149.077 42.3741 148.797 42.4272C148.626 42.4272 148.488 42.3741 148.376 42.2593C148.261 42.1502 148.143 42.0606 148.028 41.9988C147.691 41.8388 147.407 41.6091 147.18 41.3199L146.924 41.0652C146.81 40.8413 146.726 40.7007 146.664 40.6447C146.554 40.4179 146.439 40.2464 146.33 40.1345C146.33 40.0756 146.31 40.0312 146.285 40.0052C146.254 39.9723 146.243 39.9384 146.243 39.8766C146.352 39.7647 146.38 39.6636 146.329 39.5796C146.27 39.4929 146.214 39.3946 146.155 39.2768C146.043 38.9962 146.043 38.7974 146.155 38.6855C146.27 38.402 146.155 38.2592 145.813 38.2592C145.533 38.2592 145.477 38.178 145.65 38.0038C145.754 37.8918 145.844 37.8214 145.9 37.7935C145.956 37.7654 146.012 37.696 146.074 37.5782C146.186 37.5782 146.242 37.5244 146.242 37.4067C146.242 37.2361 146.186 37.1519 146.074 37.1519C145.785 36.984 145.633 36.8656 145.6 36.8096C145.572 36.7565 145.617 36.5857 145.726 36.3052C145.617 36.2463 145.541 36.2019 145.515 36.1738C145.487 36.1478 145.418 36.1091 145.303 36.0505C145.418 36.0505 145.487 36.0336 145.515 36.0053C145.541 35.9745 145.617 35.9609 145.726 35.9609C145.726 35.7362 145.617 35.6218 145.387 35.6218Z" fill="#231F20"/>
<path d="M61.5885 97.096C62.0878 97.096 62.475 97.4799 62.475 97.9815C62.475 98.481 62.0878 98.8764 61.5885 98.8764H59.63V106.582C59.63 107.078 59.2421 107.473 58.7428 107.473C58.2463 107.473 57.8533 107.078 57.8533 106.582V98.8764H55.8971C55.4143 98.8764 55.0048 98.481 55.0048 97.9815C55.0048 97.4799 55.4143 97.096 55.8971 97.096H61.5885Z" fill="#231F20"/>
<path d="M70.4259 105.623C70.9253 105.623 71.3154 106.016 71.3154 106.511C71.3154 107.005 70.9253 107.398 70.4259 107.398H64.8976C64.3947 107.398 64.0046 107.005 64.0046 106.511V97.9815C64.0046 97.4799 64.3947 97.096 64.8976 97.096H70.1062C70.6027 97.096 70.9957 97.4799 70.9957 97.9815C70.9957 98.4781 70.6027 98.8764 70.1062 98.8764H65.7841V101.359H68.6801C69.1802 101.359 69.5753 101.749 69.5753 102.245C69.5753 102.744 69.1802 103.134 68.6801 103.134H65.7841V105.623H70.4259Z" fill="#231F20"/>
<path d="M79.0529 97.0228C79.5522 97.0228 79.9395 97.4125 79.9395 97.909V103.669C79.9395 105.729 78.267 107.398 76.2072 107.398C74.1446 107.398 72.4692 105.729 72.4692 103.669C72.4692 103.17 72.8622 102.778 73.3586 102.778C73.8579 102.778 74.2509 103.17 74.2509 103.669C74.2509 104.751 75.1209 105.623 76.2072 105.623C77.2906 105.623 78.1628 104.751 78.1628 103.669V97.909C78.1628 97.4125 78.5529 97.0228 79.0529 97.0228Z" fill="#231F20"/>
<path d="M83.1415 107.473C82.6451 107.473 82.2521 107.078 82.2521 106.582V97.909C82.2521 97.4125 82.6451 97.0228 83.1415 97.0228C83.6387 97.0228 84.0309 97.4125 84.0309 97.909V106.582C84.0309 107.078 83.6387 107.473 83.1415 107.473Z" fill="#231F20"/>
<path d="M88.2999 105.623H90.2555C92.1191 105.623 93.6371 104.115 93.6371 102.245C93.6371 100.381 92.1191 98.8764 90.2555 98.8764H88.2999V105.623ZM90.2555 107.398H87.4126C86.9133 107.398 86.5175 107.005 86.5175 106.511V97.9815C86.5175 97.4799 86.9133 97.096 87.4126 97.096H90.2555C91.6226 97.096 92.9273 97.6285 93.9015 98.6044C94.8808 99.5825 95.4081 100.878 95.4081 102.245C95.4081 103.616 94.8808 104.914 93.9015 105.889C92.9273 106.865 91.6226 107.398 90.2555 107.398Z" fill="#231F20"/>
<path d="M100.502 104.009C101.212 104.667 101.922 105.194 102.382 105.516C102.848 105.194 103.575 104.642 104.288 103.986C105.71 102.672 106.474 101.447 106.474 100.538C106.474 99.5825 105.764 98.8003 104.877 98.8003C103.982 98.8003 103.275 99.5458 103.275 100.477C103.275 100.967 102.879 101.359 102.382 101.359C101.891 101.359 101.498 100.967 101.498 100.477C101.498 99.5458 100.786 98.8003 99.8933 98.8003C99.0031 98.8003 98.2933 99.5825 98.2933 100.538C98.2933 101.447 99.0592 102.691 100.502 104.009ZM99.8933 97.0228C100.87 97.0228 101.765 97.4491 102.382 98.1415C103.006 97.4491 103.895 97.0228 104.877 97.0228C106.738 97.0228 108.256 98.6044 108.256 100.538C108.256 101.996 107.333 103.616 105.478 105.32C104.178 106.492 102.918 107.294 102.862 107.327C102.724 107.417 102.542 107.473 102.382 107.473C102.225 107.473 102.049 107.417 101.905 107.327C101.849 107.293 100.586 106.492 99.2898 105.32C97.4398 103.616 96.5137 101.996 96.5137 100.538C96.5137 98.6044 98.0268 97.0228 99.8933 97.0228Z" fill="#231F20"/>
<path d="M113.411 107.473C112.272 107.473 111.222 107.044 110.706 106.725C109.763 106.119 109.586 105.66 109.55 105.427C109.497 104.914 109.869 104.451 110.313 104.376C110.616 104.345 110.919 104.538 111.152 104.751C111.859 105.41 112.662 105.729 113.411 105.729C114.461 105.729 115.291 105.371 115.291 104.468C115.291 103.72 114.688 103.384 113.125 102.977C110.905 102.391 109.853 101.587 109.853 99.9944C109.853 98.2843 111.273 97.0228 113.411 97.0228C115.381 97.0228 116.574 98.1782 116.731 98.3403C116.919 98.5148 116.984 98.7472 116.984 98.9266C116.984 99.299 116.809 99.6528 116.467 99.7784C116.133 99.9016 115.881 99.8456 115.505 99.6191C115.031 99.3327 114.495 98.7666 113.411 98.7666C112.412 98.7666 111.629 99.2603 111.629 99.9161C111.629 100.581 112.126 100.878 113.551 101.237C116.17 101.872 117.076 102.744 117.076 104.435C117.076 106.301 115.743 107.473 113.411 107.473Z" fill="#231F20"/>
</svg>
