<svg width="424" height="554" viewBox="0 0 424 554" fill="none" xmlns="http://www.w3.org/2000/svg">
<path d="M97.5068 39.4684C88.0892 24.4823 75.3879 8.83619 57.8752 2.7169C47.7456 -0.819448 36.042 -1.0985 26.1497 3.0371C20.098 5.58069 14.7298 9.7735 10.7714 14.9233C4.62157 22.944 1.88218 33.2991 0.836372 43.5217C-0.286159 54.4921 0.515129 65.3158 2.76023 75.9642C7.48775 98.4344 17.5745 119.334 36.042 133.322L37.0521 134.105C32.8564 134.336 29.3139 134.182 25.195 133.428L24.5667 133.322C27.2579 137.654 30.5827 140.114 35.6993 140.883L36.2724 140.98C32.4105 144.509 28.3664 146.711 23.1874 147.8L22.7201 147.898C26.1841 148.925 29.3572 149.505 32.9604 149.63H33.3154C24.9989 161.956 17.6588 174.415 10.9378 187.705L10.7718 188.047C15.428 184.246 20.2108 181.563 25.8146 179.753L26.1498 179.642C26.3655 186.189 21.8488 190.338 17.7763 194.803C11.3909 201.833 6.07981 209.406 8.44268 220.007L8.49105 220.231C11.5731 213.922 15.6296 208.75 21.0264 204.425L21.2069 204.286C21.6819 209.75 18.7958 214.068 16.0975 218.485C10.0886 228.316 4.99163 238.419 6.69239 250.485L6.72047 250.668C9.27251 246.504 12.2564 242.953 15.9506 239.796L16.097 239.683C10.8341 259.338 2.69076 278.533 3.76511 299.265L3.78485 299.585C5.47312 294.877 7.27916 290.586 9.50281 286.114L9.64916 285.821C6.72771 312.7 4.72 339.7 3.78485 366.72C3.05314 387.688 2.96926 408.65 2.76046 429.634C2.34288 471.095 1.422 511.027 0.0496033 552.469L0 554H423.232C423.441 509.974 424.696 465.919 423.469 421.905C423.072 407.275 422.388 392.65 421.265 378.073C419.334 353.011 416.108 329.002 415.689 303.833V302.89C417.502 304.407 418.847 305.497 420.75 306.894L421.265 307.271C419.181 297.615 416.631 289.02 412.977 279.853L412.656 279.064C414.105 281.356 415.347 282.529 418.247 282.88L419.181 283.026C413.52 267.668 408.669 253.135 406.604 236.839L406.465 235.644C409.54 237.938 411.833 239.132 415.661 239.53L416.811 239.683C408.823 224.717 402.617 209.037 398.204 192.638C400.784 194.037 403.321 194.756 406.249 194.804H406.465C395.214 179.727 389.024 163.181 387.887 144.846L387.869 144.685C390.728 145.132 392.944 144.041 394.659 141.129L394.744 140.98C391.94 141.309 389.375 140.938 386.782 139.73L386.657 139.676C390.107 137.971 392.806 135.449 394.744 132.11C392.247 134.464 389.397 135.176 385.876 134.156L385.715 134.108C407.927 113.223 419.498 84.6316 421.262 54.9832C421.758 46.5707 421.477 38.067 419.177 30.0105C417.26 23.2902 413.921 16.8829 409.16 11.6759C405.598 7.80505 401.247 4.59783 396.416 2.71964C390.616 0.462245 384.168 0.118818 377.838 0.587464C371.863 1.03464 366.007 2.20807 360.521 4.35456C345.675 10.1538 333.698 22.7161 325.66 36.0834L325.478 36.391C298.243 20.7181 267.031 16.2533 236.023 14.9261C213.206 13.9548 190.495 14.6882 167.9 17.7272C143.382 21.0185 118.983 27.0216 97.6241 39.668L97.5068 39.4684Z" fill="white"/>
<path d="M311.872 159.552C310.157 159.846 308.507 160.454 307.022 161.37C304.971 162.641 303.278 164.514 302.085 166.618C301.018 168.503 300.363 170.578 300.119 172.744C299.694 176.483 300.517 180.507 302.637 183.568C304.755 186.614 308.157 188.718 311.872 189.626C315.832 190.583 320.141 190.184 323.535 188.047C327.634 185.434 330.388 180.269 330.249 175.456C330.11 170.753 327.217 166.38 323.535 163.249C321.395 161.432 318.984 160.035 316.341 159.552C314.885 159.295 313.357 159.309 311.872 159.552Z" fill="#231F20"/>
<path d="M108.04 159.552C106.409 159.91 104.854 160.538 103.412 161.37C101.131 162.682 99.1166 164.464 97.6264 166.618C95.9935 168.979 94.9834 171.794 94.7532 174.687C94.5231 177.475 95.0191 180.346 96.3576 182.758C97.5907 184.986 99.5431 186.816 101.794 188.047C104.89 189.718 108.536 190.261 112.062 189.626C115.981 188.913 119.76 186.741 121.928 183.568C124.207 180.257 124.73 175.848 124.137 171.662C123.691 168.503 122.59 165.478 120.52 163.249C118.798 161.403 116.329 160.336 113.868 159.552C111.491 158.819 109.755 159.015 108.04 159.552Z" fill="#231F20"/>
<path d="M226.629 265.186C221.518 266.172 217.363 262.104 214.177 258.584V250.667H214.379C229.172 250.388 244.922 245.811 256.172 235.644C259.588 232.571 262.565 228.972 264.323 224.555C265.793 220.894 266.4 216.645 265.11 213.096C263.925 209.834 261.137 207.163 258.055 205.249C254.068 202.763 249.578 201.532 245.047 201.169C240.098 200.75 235.106 201.357 230.163 202.105C224.809 202.922 219.539 203.901 214.178 204.285C208.44 204.684 202.626 204.383 196.938 203.203C192.371 202.258 187.89 200.751 183.309 200.693C180.8 200.663 178.255 201.057 175.787 201.792C168.537 203.936 161.984 208.589 159.9 216.059L159.794 216.402C157.69 222.836 159.676 230.342 163.874 235.643C167.784 240.584 173.612 243.596 179.559 245.916C189.408 249.773 199.202 251.742 209.682 250.708L210.071 250.666V258.583C207.653 263.279 202.479 266.268 197.237 265.618L196.937 265.594C197.808 272.728 204.71 275.788 211.793 275.892C219.183 276.005 226.782 272.875 226.955 265.14L226.629 265.186Z" fill="#231F20"/>
<path d="M145.831 342.648C145.337 342.949 145.085 346.519 144.584 349.25C143.831 353.282 142.521 355.405 142.389 358.978C142.291 362.094 143.085 366.328 145.831 366.984C147.309 367.327 149.345 366.662 150.223 365.404C151.108 364.147 150.823 362.296 150.53 360.702C149.916 357.271 149.304 355.042 148.34 350.808C147.539 347.252 146.474 342.29 145.831 342.648Z" fill="#FABDCA"/>
<path d="M154.281 411.947C153.771 412.212 153.528 415.811 153.02 418.523C152.274 422.567 150.962 424.699 150.83 428.263C150.719 431.386 151.528 435.606 154.281 436.276C155.745 436.627 157.781 435.942 158.666 434.699C159.551 433.439 159.271 431.581 158.978 429.989C158.352 426.572 157.745 424.329 156.783 420.108C155.975 416.537 154.915 411.57 154.281 411.947Z" fill="#E181C2"/>
<path d="M122.75 419.725C122.24 420.004 122.004 423.589 121.482 426.313C120.743 430.352 119.424 432.475 119.299 436.06C119.188 439.178 119.99 443.397 122.75 444.047C124.221 444.41 126.255 443.732 127.128 442.481C128.021 441.231 127.735 439.373 127.442 437.764C126.821 434.355 126.215 432.105 125.253 427.878C124.437 424.315 123.384 419.348 122.75 419.725Z" fill="#FABDCA"/>
<path d="M135.653 379.303C134.984 379.079 135.8 384.92 135.173 389.533C134.461 394.829 131.839 398.477 134.698 401.263C136.441 402.975 140.268 404.36 141.642 403.179C142.813 402.172 142.165 399.265 141.642 396.945C140.776 393.25 140.22 391.105 138.951 387.304C137.85 384.025 136.219 379.491 135.653 379.303Z" fill="#AAD2E4"/>
<path d="M102.666 383.285C102.004 383.068 102.82 388.91 102.191 393.522C101.481 398.804 98.8663 402.465 101.716 405.261C103.474 406.966 107.288 408.341 108.66 407.161C109.838 406.156 109.19 403.254 108.66 400.943C107.796 397.231 107.245 395.094 105.969 391.3C104.875 388.009 103.244 383.474 102.666 383.285Z" fill="#C5EBE0"/>
<path d="M87.7197 419.78C87.0505 419.55 87.8661 425.385 87.2381 429.996C86.5278 435.278 83.9061 438.94 86.7708 441.719C88.5215 443.431 92.3424 444.809 93.7077 443.635C94.8855 442.642 94.2378 439.714 93.7077 437.416C92.8439 433.713 92.2924 431.581 91.0236 427.78C89.9225 424.496 88.2908 419.961 87.7197 419.78Z" fill="#E181C2"/>
<path d="M69.9 395.443C69.2379 395.227 70.0464 401.068 69.4202 405.687C68.7081 410.955 66.1007 414.624 68.9457 417.398C70.7035 419.124 74.5084 420.5 75.8826 419.319C77.0604 418.312 76.427 415.393 75.8826 413.092C75.0384 409.397 74.4745 407.259 73.1985 403.451C72.1045 400.174 70.4729 395.632 69.9 395.443Z" fill="#AAD2E4"/>
<path d="M168.055 365.726C167.422 366.152 167.986 370.443 167.853 373.581C167.728 377.101 166.731 379.226 166.32 382.231C165.978 384.801 166.04 388.03 168.055 389.533C169.959 390.957 173.625 390.797 175.145 389.155C176.56 387.646 176.155 384.864 175.717 382.614C175.104 379.428 174.414 377.305 172.852 373.769C171.276 370.22 168.808 365.231 168.055 365.726Z" fill="#FABDCA"/>
<path d="M183.169 342.494C182.536 342.913 183.093 347.19 182.982 350.334C182.843 353.855 181.859 355.965 181.447 358.983C181.085 361.555 181.162 364.796 183.169 366.292C185.086 367.703 188.732 367.551 190.267 365.902C191.682 364.392 191.277 361.603 190.852 359.36C190.224 356.182 189.528 354.058 187.959 350.522C186.39 346.98 183.93 341.984 183.169 342.494Z" fill="#E181C2"/>
<path d="M202.676 362.974C202.179 363.267 201.93 366.851 201.428 369.563C200.675 373.608 199.363 375.726 199.231 379.303C199.128 382.412 199.929 386.646 202.676 387.304C204.16 387.668 206.182 386.997 207.067 385.739C207.953 384.472 207.66 382.628 207.374 381.036C206.76 377.618 206.146 375.37 205.184 371.141C204.369 367.578 203.316 362.61 202.676 362.974Z" fill="#C5EBE0"/>
<path d="M232.233 342.648C231.724 342.949 231.48 346.519 230.985 349.25C230.232 353.282 228.915 355.405 228.783 358.978C228.677 362.094 229.486 366.328 232.233 366.984C233.705 367.327 235.74 366.662 236.611 365.404C237.503 364.147 237.224 362.296 236.925 360.702C236.318 357.271 235.692 355.042 234.737 350.808C233.928 347.252 232.868 342.29 232.233 342.648Z" fill="#FABDCA"/>
<path d="M268.616 344.632C268.122 344.932 267.877 348.51 267.362 351.229C266.616 355.28 265.299 357.384 265.165 360.968C265.061 364.084 265.863 368.325 268.616 368.969C270.094 369.311 272.13 368.654 273.001 367.39C273.893 366.125 273.601 364.286 273.315 362.687C272.702 359.271 272.08 357.021 271.126 352.794C270.31 349.236 269.25 344.254 268.616 344.632Z" fill="#FABDCA"/>
<path d="M184.738 395.402C184.23 395.687 183.992 399.265 183.476 401.997C182.73 406.029 181.42 408.161 181.294 411.724C181.183 414.847 181.992 419.074 184.738 419.738C186.209 420.088 188.245 419.425 189.123 418.165C190.022 416.901 189.723 415.042 189.437 413.464C188.816 410.034 188.202 407.783 187.248 403.569C186.439 399.999 185.379 395.039 184.738 395.402Z" fill="#C5EBE0"/>
<path d="M219.023 373.182C218.346 372.966 219.176 378.807 218.548 383.419C217.823 388.708 215.216 392.348 218.061 395.142C219.824 396.861 223.638 398.239 225.005 397.065C226.19 396.044 225.54 393.144 225.005 390.831C224.153 387.122 223.595 384.984 222.321 381.19C221.212 377.906 219.587 373.37 219.023 373.182Z" fill="#AAD2E4"/>
<path d="M181.071 522.338C180.394 522.122 181.224 527.964 180.596 532.575C179.871 537.865 177.264 541.505 180.109 544.299C181.872 546.018 185.686 547.395 187.053 546.222C188.238 545.2 187.588 542.301 187.053 539.988C186.201 536.278 185.643 534.14 184.368 530.346C183.26 527.062 181.635 522.526 181.071 522.338Z" fill="#AAD2E4"/>
<path d="M157.455 502.99C156.944 503.255 156.702 506.854 156.193 509.565C155.447 513.61 154.135 515.742 154.003 519.305C153.892 522.428 154.701 526.648 157.455 527.319C158.918 527.669 160.954 526.984 161.84 525.741C162.725 524.482 162.445 522.623 162.151 521.031C161.525 517.615 160.918 515.372 159.956 511.15C159.148 507.58 158.088 502.612 157.455 502.99Z" fill="#E181C2"/>
<path d="M65.2813 524.309C64.771 524.574 64.5282 528.173 64.0195 530.885C63.2736 534.929 61.9619 537.061 61.8298 540.625C61.7187 543.748 62.5276 547.968 65.2813 548.638C66.7447 548.989 68.781 548.304 69.6662 547.061C70.5513 545.801 70.2712 543.943 69.9781 542.351C69.3517 538.934 68.745 536.691 67.783 532.47C66.9746 528.899 65.9149 523.932 65.2813 524.309Z" fill="#E181C2"/>
<path d="M352.437 518.799C351.926 519.064 351.684 522.663 351.175 525.375C350.429 529.419 349.117 531.551 348.985 535.115C348.874 538.238 349.683 542.457 352.437 543.128C353.9 543.479 355.936 542.794 356.822 541.551C357.707 540.291 357.427 538.433 357.134 536.841C356.507 533.424 355.9 531.181 354.938 526.96C354.13 523.389 353.07 518.422 352.437 518.799Z" fill="#E181C2"/>
<path d="M171.228 456.769C170.595 457.195 171.159 461.486 171.026 464.623C170.901 468.143 169.904 470.268 169.493 473.273C169.151 475.844 169.214 479.073 171.228 480.575C173.132 481.999 176.798 481.84 178.318 480.198C179.734 478.688 179.328 475.907 178.89 473.656C178.278 470.471 177.587 468.347 176.025 464.811C174.449 461.262 171.981 456.273 171.228 456.769Z" fill="#FABDCA"/>
<path d="M79.055 478.088C78.4215 478.514 78.9856 482.805 78.853 485.943C78.7281 489.463 77.7304 491.588 77.3199 494.593C76.9775 497.164 77.0403 500.392 79.0546 501.895C80.9588 503.319 84.6245 503.159 86.145 501.517C87.5602 500.008 87.1551 497.226 86.7163 494.976C86.1042 491.79 85.4135 489.667 83.8519 486.131C82.2761 482.582 79.8081 477.593 79.055 478.088Z" fill="#FABDCA"/>
<path d="M186.343 433.536C185.709 433.955 186.266 438.232 186.155 441.377C186.016 444.897 185.033 447.008 184.62 450.025C184.258 452.597 184.335 455.839 186.342 457.334C188.259 458.745 191.905 458.593 193.44 456.944C194.855 455.434 194.45 452.646 194.025 450.403C193.397 447.224 192.701 445.101 191.132 441.564C189.563 438.023 187.103 433.027 186.343 433.536Z" fill="#E181C2"/>
<path d="M94.1693 454.856C93.5358 455.275 94.0929 459.552 93.9817 462.696C93.8425 466.217 92.8592 468.327 92.447 471.345C92.0848 473.917 92.1619 477.158 94.1691 478.654C96.0858 480.065 99.7318 479.913 101.267 478.264C102.682 476.754 102.277 473.965 101.852 471.722C101.224 468.544 100.528 466.42 98.9588 462.884C97.3901 459.342 94.9296 454.346 94.1693 454.856Z" fill="#E181C2"/>
<path d="M205.849 454.016C205.352 454.309 205.103 457.894 204.601 460.606C203.848 464.65 202.536 466.768 202.404 470.345C202.301 473.454 203.102 477.688 205.849 478.346C207.334 478.71 209.356 478.039 210.241 476.781C211.126 475.515 210.834 473.671 210.547 472.079C209.933 468.66 209.319 466.412 208.358 462.183C207.542 458.62 206.489 453.653 205.849 454.016Z" fill="#C5EBE0"/>
<path d="M113.675 475.336C113.179 475.629 112.929 479.214 112.428 481.925C111.675 485.97 110.363 488.088 110.231 491.665C110.128 494.774 110.929 499.008 113.675 499.666C115.16 500.03 117.182 499.359 118.067 498.101C118.953 496.834 118.66 494.99 118.374 493.398C117.76 489.98 117.146 487.732 116.184 483.503C115.369 479.94 114.316 474.972 113.675 475.336Z" fill="#C5EBE0"/>
<path d="M235.406 433.69C234.897 433.991 234.653 437.561 234.158 440.293C233.405 444.324 232.088 446.448 231.956 450.02C231.85 453.136 232.659 457.37 235.406 458.026C236.878 458.369 238.913 457.704 239.784 456.447C240.676 455.189 240.398 453.338 240.098 451.744C239.491 448.313 238.865 446.085 237.91 441.851C237.102 438.295 236.041 433.333 235.406 433.69Z" fill="#FABDCA"/>
<path d="M143.232 455.01C142.724 455.311 142.479 458.881 141.985 461.612C141.232 465.644 139.915 467.767 139.783 471.34C139.677 474.456 140.486 478.69 143.232 479.346C144.705 479.689 146.739 479.024 147.61 477.766C148.503 476.509 148.224 474.658 147.925 473.064C147.318 469.633 146.691 467.404 145.737 463.17C144.928 459.614 143.868 454.652 143.232 455.01Z" fill="#FABDCA"/>
<path d="M122.001 522.351C121.492 522.651 121.248 526.222 120.753 528.953C120 532.985 118.683 535.108 118.551 538.68C118.445 541.796 119.254 546.03 122.001 546.687C123.473 547.03 125.507 546.364 126.378 545.107C127.271 543.85 126.992 541.998 126.693 540.404C126.086 536.974 125.46 534.745 124.505 530.511C123.696 526.955 122.636 521.993 122.001 522.351Z" fill="#FABDCA"/>
<path d="M187.911 486.444C187.403 486.73 187.165 490.308 186.649 493.039C185.903 497.071 184.594 499.203 184.467 502.766C184.356 505.889 185.165 510.116 187.911 510.78C189.382 511.13 191.418 510.467 192.296 509.208C193.196 507.943 192.896 506.085 192.61 504.507C191.989 501.076 191.375 498.826 190.421 494.612C189.612 491.041 188.552 486.081 187.911 486.444Z" fill="#C5EBE0"/>
<path d="M95.7379 507.764C95.2293 508.049 94.9919 511.627 94.4761 514.359C93.7301 518.391 92.4202 520.523 92.2935 524.086C92.1824 527.209 92.9913 531.436 95.7379 532.1C97.2084 532.45 99.2447 531.787 100.123 530.527C101.022 529.263 100.722 527.404 100.437 525.826C99.816 522.396 99.2021 520.145 98.2473 515.931C97.4389 512.361 96.3786 507.401 95.7379 507.764Z" fill="#C5EBE0"/>
<path d="M222.196 464.224C221.52 464.008 222.35 469.85 221.721 474.461C220.996 479.75 218.389 483.391 221.234 486.185C222.997 487.904 226.811 489.281 228.178 488.107C229.363 487.086 228.713 484.187 228.178 481.874C227.327 478.164 226.768 476.026 225.494 472.232C224.386 468.948 222.76 464.412 222.196 464.224Z" fill="#AAD2E4"/>
<path d="M130.023 485.544C129.346 485.328 130.176 491.169 129.548 495.781C128.823 501.07 126.216 504.71 129.061 507.504C130.824 509.223 134.638 510.601 136.005 509.427C137.19 508.406 136.54 505.506 136.005 503.193C135.153 499.484 134.595 497.346 133.321 493.552C132.212 490.268 130.587 485.732 130.023 485.544Z" fill="#AAD2E4"/>
<path d="M251.418 359.605C250.791 360.025 251.341 364.315 251.237 367.453C251.091 370.982 250.107 373.098 249.695 376.11C249.34 378.688 249.402 381.916 251.417 383.419C253.336 384.837 256.994 384.676 258.522 383.027C259.93 381.525 259.525 378.743 259.1 376.495C258.479 373.307 257.783 371.177 256.215 367.655C254.639 364.092 252.178 359.103 251.418 359.605Z" fill="#E181C2"/>
<path d="M286.045 356.852C285.542 357.153 285.299 360.73 284.791 363.449C284.045 367.487 282.726 369.612 282.594 373.182C282.488 376.305 283.299 380.532 286.045 381.19C287.523 381.539 289.557 380.875 290.437 379.625C291.322 378.353 291.042 376.514 290.749 374.908C290.13 371.492 289.523 369.256 288.554 365.015C287.745 361.45 286.686 356.496 286.045 356.852Z" fill="#E181C2"/>
<path d="M294.486 426.145C293.992 426.426 293.733 430.01 293.239 432.742C292.486 436.781 291.169 438.911 291.042 442.474C290.924 445.59 291.733 449.833 294.486 450.482C295.964 450.838 297.993 450.16 298.871 448.903C299.756 447.645 299.485 445.808 299.185 444.2C298.564 440.769 297.952 438.534 296.989 434.314C296.187 430.744 295.134 425.775 294.486 426.145Z" fill="#E181C2"/>
<path d="M262.955 433.922C262.454 434.201 262.202 437.8 261.693 440.519C260.955 444.549 259.637 446.681 259.511 450.259C259.407 453.382 260.201 457.602 262.955 458.258C264.433 458.601 266.462 457.938 267.333 456.688C268.232 455.428 267.932 453.577 267.654 451.971C267.033 448.554 266.426 446.311 265.457 442.097C264.649 438.519 263.59 433.552 262.955 433.922Z" fill="#E181C2"/>
<path d="M275.86 393.522C275.191 393.298 276.014 399.14 275.378 403.737C274.675 409.027 272.053 412.674 274.911 415.47C276.662 417.189 280.475 418.564 281.841 417.391C283.019 416.384 282.378 413.465 281.841 411.164C280.998 407.461 280.44 405.31 279.157 401.53C278.077 398.239 276.431 393.704 275.86 393.522Z" fill="#FABDCA"/>
<path d="M242.885 397.498C242.216 397.274 243.032 403.115 242.405 407.74C241.7 413.01 239.071 416.691 241.93 419.466C243.679 421.17 247.507 422.555 248.867 421.38C250.052 420.374 249.402 417.453 248.867 415.141C248.008 411.452 247.459 409.313 246.183 405.505C245.074 402.22 243.449 397.693 242.885 397.498Z" fill="#AAD2E4"/>
<path d="M210.114 409.669C209.445 409.445 210.26 415.28 209.632 419.899C208.915 425.174 206.3 428.842 209.167 431.624C210.908 433.329 214.737 434.711 216.102 433.538C217.287 432.518 216.632 429.611 216.102 427.306C215.245 423.601 214.687 421.471 213.411 417.655C212.302 414.379 210.678 409.844 210.114 409.669Z" fill="#E181C2"/>
<path d="M65.4456 446.129C64.7764 445.905 65.5991 451.747 64.9729 456.359C64.2536 461.648 61.6391 465.302 64.4978 468.091C66.2468 469.788 70.0677 471.178 71.4348 469.998C72.6126 468.991 71.972 466.084 71.4348 463.778C70.5763 460.083 70.0195 457.938 68.7577 454.137C67.6495 450.846 66.0185 446.318 65.4456 446.129Z" fill="#C5EBE0"/>
<path d="M308.269 379.931C307.627 380.358 308.2 384.641 308.073 387.785C307.94 391.321 306.957 393.416 306.532 396.436C306.199 399.013 306.254 402.249 308.269 403.737C310.171 405.17 313.824 405.009 315.357 403.36C316.765 401.85 316.369 399.07 315.938 396.827C315.309 393.64 314.619 391.517 313.057 387.987C311.483 384.431 309.022 379.435 308.269 379.931Z" fill="#AAD2E4"/>
<path d="M323.376 356.706C322.755 357.119 323.316 361.394 323.187 364.546C323.062 368.061 322.072 370.17 321.654 373.196C321.305 375.767 321.376 379.017 323.376 380.498C325.293 381.909 328.946 381.762 330.486 380.121C331.895 378.604 331.489 375.824 331.051 373.581C330.438 370.4 329.733 368.27 328.179 364.734C326.603 361.171 324.149 356.196 323.376 356.706Z" fill="#C5EBE0"/>
<path d="M342.88 377.185C342.393 377.486 342.134 381.063 341.64 383.782C340.887 387.826 339.556 389.944 339.438 393.522C339.332 396.638 340.148 400.866 342.88 401.53C344.358 401.864 346.401 401.208 347.265 399.943C348.165 398.686 347.872 396.847 347.593 395.248C346.972 391.817 346.353 389.574 345.396 385.354C344.581 381.797 343.523 376.815 342.88 377.185Z" fill="#C5EBE0"/>
<path d="M342.88 433.922C342.393 434.201 342.134 437.8 341.64 440.519C340.887 444.549 339.556 446.681 339.438 450.259C339.332 453.382 340.148 457.602 342.88 458.258C344.358 458.601 346.401 457.938 347.265 456.688C348.165 455.428 347.872 453.577 347.593 451.971C346.972 448.554 346.353 446.311 345.396 442.097C344.581 438.519 343.523 433.552 342.88 433.922Z" fill="#FABDCA"/>
<path d="M324.95 409.613C324.449 409.899 324.199 413.477 323.696 416.203C322.957 420.242 321.633 422.372 321.508 425.95C321.395 429.059 322.196 433.3 324.95 433.951C326.422 434.299 328.45 433.629 329.335 432.378C330.227 431.114 329.935 429.268 329.649 427.662C329.03 424.245 328.416 422.002 327.461 417.775C326.653 414.217 325.593 409.243 324.95 409.613Z" fill="#E181C2"/>
<path d="M315.581 446.08C315.065 446.374 314.83 449.965 314.333 452.675C313.573 456.707 312.249 458.839 312.131 462.403C312.019 465.533 312.827 469.76 315.581 470.423C317.053 470.774 319.081 470.103 319.966 468.844C320.846 467.586 320.565 465.728 320.272 464.136C319.653 460.705 319.032 458.469 318.077 454.248C317.269 450.685 316.216 445.71 315.581 446.08Z" fill="#C5EBE0"/>
<path d="M341.8 479.713C341.284 480.006 341.049 483.598 340.552 486.308C339.792 490.339 338.468 492.472 338.35 496.035C338.238 499.165 339.046 503.392 341.8 504.056C343.272 504.406 345.3 503.735 346.185 502.476C347.065 501.219 346.784 499.36 346.491 497.768C345.872 494.337 345.251 492.101 344.296 487.88C343.488 484.317 342.435 479.342 341.8 479.713Z" fill="#C5EBE0"/>
<path d="M217.714 515.245C217.212 515.525 216.961 519.123 216.452 521.842C215.713 525.872 214.396 528.005 214.269 531.582C214.166 534.705 214.96 538.925 217.714 539.581C219.191 539.924 221.22 539.261 222.091 538.011C222.991 536.751 222.691 534.9 222.413 533.294C221.792 529.877 221.185 527.634 220.216 523.42C219.408 519.842 218.349 514.875 217.714 515.245Z" fill="#E181C2"/>
<path d="M237.709 491.672C237.039 491.448 237.862 497.291 237.227 501.888C236.524 507.177 233.902 510.824 236.76 513.62C238.51 515.339 242.324 516.715 243.69 515.541C244.867 514.534 244.227 511.615 243.69 509.315C242.847 505.612 242.289 503.46 241.005 499.68C239.926 496.389 238.28 491.855 237.709 491.672Z" fill="#FABDCA"/>
<path d="M270.118 478.081C269.475 478.509 270.049 482.791 269.921 485.936C269.789 489.472 268.806 491.567 268.381 494.586C268.048 497.164 268.103 500.399 270.117 501.888C272.02 503.32 275.673 503.159 277.206 501.51C278.614 500.001 278.218 497.221 277.786 494.978C277.158 491.79 276.468 489.667 274.906 486.138C273.332 482.582 270.871 477.586 270.118 478.081Z" fill="#AAD2E4"/>
<path d="M285.225 454.856C284.604 455.27 285.165 459.545 285.036 462.696C284.911 466.211 283.921 468.32 283.503 471.347C283.153 473.917 283.225 477.167 285.225 478.648C287.142 480.06 290.795 479.913 292.335 478.271C293.743 476.754 293.338 473.974 292.899 471.731C292.287 468.551 291.582 466.421 290.028 462.884C288.452 459.321 285.998 454.346 285.225 454.856Z" fill="#C5EBE0"/>
<path d="M316.976 497.479C316.489 497.758 316.23 501.357 315.735 504.076C314.982 508.106 313.651 510.238 313.533 513.816C313.427 516.939 314.243 521.158 316.976 521.815C318.453 522.158 320.497 521.494 321.361 520.244C322.26 518.985 321.967 517.134 321.689 515.527C321.068 512.111 320.448 509.868 319.492 505.654C318.676 502.076 317.618 497.109 316.976 497.479Z" fill="#FABDCA"/>
<path d="M286.799 507.764C286.298 508.049 286.048 511.627 285.544 514.354C284.805 518.393 283.481 520.523 283.356 524.1C283.244 527.209 284.045 531.45 286.799 532.101C288.271 532.45 290.299 531.779 291.184 530.529C292.076 529.264 291.783 527.418 291.498 525.812C290.879 522.396 290.265 520.153 289.31 515.926C288.502 512.368 287.441 507.393 286.799 507.764Z" fill="#E181C2"/>
<path d="M260.262 522.352C259.746 522.645 259.51 526.237 259.014 528.947C258.254 532.979 256.93 535.111 256.812 538.674C256.7 541.805 257.508 546.031 260.262 546.695C261.734 547.045 263.762 546.374 264.647 545.115C265.526 543.858 265.246 542 264.953 540.408C264.334 536.977 263.713 534.741 262.758 530.519C261.95 526.956 260.897 521.982 260.262 522.352Z" fill="#C5EBE0"/>
</svg>
